<?xml version="1.0" encoding="UTF-8" standalone="no"?><!DOCTYPE svg PUBLIC "-//W3C//DTD SVG 1.1//EN" "http://www.w3.org/Graphics/SVG/1.1/DTD/svg11.dtd"><svg width="100%" height="100%" viewBox="0 0 100 100" version="1.1" xmlns="http://www.w3.org/2000/svg" xmlns:xlink="http://www.w3.org/1999/xlink" xml:space="preserve" xmlns:serif="http://www.serif.com/" style="fill-rule:evenodd;clip-rule:evenodd;stroke-linejoin:round;stroke-miterlimit:2;"><g><path id="cardboard" d="M6.037,41.774l-4.471,-0.007l0.062,-15.858l96.72,0.414l0.086,15.597l-4.471,-0.007l0,56.618l-87.926,0l0,-56.757Z" style="fill:#ffa000;"/><path id="dots" d="M29.009,84.155c3.035,0 5.499,2.444 5.499,5.454c0,3.01 -2.464,5.454 -5.499,5.454c-3.035,0 -5.498,-2.444 -5.498,-5.454c0,-3.01 2.463,-5.454 5.498,-5.454Zm28.183,0c3.035,0 5.499,2.444 5.499,5.454c0,3.01 -2.464,5.454 -5.499,5.454c-3.035,0 -5.499,-2.444 -5.499,-5.454c0,-3.01 2.464,-5.454 5.499,-5.454Zm28.183,0c3.035,0 5.499,2.444 5.499,5.454c0,3.01 -2.464,5.454 -5.499,5.454c-3.035,0 -5.499,-2.444 -5.499,-5.454c0,-3.01 2.464,-5.454 5.499,-5.454Zm-68.892,-14.689c3.035,0 5.499,2.444 5.499,5.454c0,3.01 -2.464,5.454 -5.499,5.454c-3.034,0 -5.498,-2.444 -5.498,-5.454c0,-3.01 2.464,-5.454 5.498,-5.454Zm28.183,0c3.035,0 5.499,2.444 5.499,5.454c0,3.01 -2.464,5.454 -5.499,5.454c-3.034,0 -5.498,-2.444 -5.498,-5.454c0,-3.01 2.464,-5.454 5.498,-5.454Zm28.183,0c3.035,0 5.499,2.444 5.499,5.454c0,3.01 -2.464,5.454 -5.499,5.454c-3.035,0 -5.498,-2.444 -5.498,-5.454c0,-3.01 2.463,-5.454 5.498,-5.454Zm-43.84,-17.626c3.035,0 5.499,2.444 5.499,5.454c0,3.01 -2.464,5.453 -5.499,5.453c-3.035,0 -5.498,-2.443 -5.498,-5.453c0,-3.01 2.463,-5.454 5.498,-5.454Zm28.183,0c3.035,0 5.499,2.444 5.499,5.454c0,3.01 -2.464,5.453 -5.499,5.453c-3.035,0 -5.499,-2.443 -5.499,-5.453c0,-3.01 2.464,-5.454 5.499,-5.454Zm28.183,0c3.035,0 5.499,2.444 5.499,5.454c0,3.01 -2.464,5.453 -5.499,5.453c-3.035,0 -5.499,-2.443 -5.499,-5.453c0,-3.01 2.464,-5.454 5.499,-5.454Zm-63.861,-11.438c0.301,0.674 0.468,1.419 0.468,2.203c0,3.01 -2.464,5.454 -5.499,5.454c-3.034,0 -5.498,-2.444 -5.498,-5.454c0,-0.784 0.167,-1.529 0.467,-2.203l10.062,0Zm28.183,0c0.301,0.674 0.468,1.419 0.468,2.203c0,3.01 -2.464,5.454 -5.499,5.454c-3.034,0 -5.498,-2.444 -5.498,-5.454c0,-0.784 0.167,-1.529 0.467,-2.203l10.062,0Zm28.183,0c0.301,0.674 0.468,1.419 0.468,2.203c0,3.01 -2.464,5.454 -5.499,5.454c-3.035,0 -5.498,-2.444 -5.498,-5.454c0,-0.784 0.167,-1.529 0.467,-2.203l10.062,0Z" style="fill:#bb7500;"/><path id="tag" d="M85.444,90.679l-31.634,0l0,-27.327l15.15,-9.418l16.53,9.418l-0.046,27.327Zm-15.501,-29.924c1.462,0 2.649,1.312 2.649,2.928c0,1.616 -1.187,2.927 -2.649,2.927c-1.462,0 -2.649,-1.311 -2.649,-2.927c0,-1.616 1.187,-2.928 2.649,-2.928Z" style="fill:#fff;"/><path id="outline" d="M93.963,100l-87.926,0l-0.599,-0.112c-0.505,-0.316 -0.511,-0.322 -0.848,-0.795l-0.119,-0.562l0,-55.29l-2.908,-0.005l-0.6,-0.113l-0.507,-0.32l-0.339,-0.478l-0.117,-0.563l0.062,-15.858l0.122,-0.562l0.341,-0.476l0.51,-0.316l0.6,-0.109l26.622,0.113c-2.062,-1.199 -3.642,-2.972 -3.915,-5.434c-0.333,-3.009 1.169,-6.059 3.162,-8.21c1.632,-1.761 3.854,-3.055 6.479,-3.05c2.409,0.022 4.579,1.217 6.461,2.794c-0.596,-2.671 -0.519,-5.565 1.385,-7.694c1.887,-2.109 5.045,-2.971 8.039,-2.96c4.005,0.044 8.244,1.791 9.301,5.726c0.456,1.699 0.328,3.451 -0.096,5.177c0.201,-0.177 0.406,-0.352 0.613,-0.524c1.777,-1.472 3.921,-2.648 6.276,-2.686c0.055,0 0.11,0 0.165,0c4.128,0.05 7.526,3.728 8.828,6.901c1.359,3.309 0.661,7.553 -2.872,9.672c-0.279,0.167 -0.564,0.325 -0.854,0.472l27.126,0.116c0.626,0.119 1.205,0.38 1.438,0.903c0.078,0.175 0.08,0.372 0.12,0.558l0.087,15.597l-0.117,0.565l-0.34,0.48l-0.509,0.32l-0.602,0.112l-2.903,-0.005l0,55.147l-0.119,0.562c-0.337,0.474 -0.343,0.479 -0.848,0.795l-0.599,0.112Zm-8.519,-7.852l-31.634,0c-0.839,-0.039 -1.524,-0.669 -1.566,-1.469l0,-27.327c0.039,-0.728 0.102,-0.811 0.701,-1.225l14.777,-9.185l-0.116,-9.602l-60.004,-0.095l0,53.817l84.796,0l0,-53.683l-21.661,-0.034l0.121,9.952l15.445,8.799c0.668,0.422 0.726,0.687 0.753,1.258l-0.046,27.327c-0.043,0.788 -0.714,1.428 -1.566,1.467Zm-17.679,-35.709l-12.389,7.701l0,25.07l28.505,0l0.042,-25.033l-13.023,-7.419l0.026,2.099c2.696,0.776 4.583,3.888 3.229,6.523c-1.088,2.118 -4.045,3.196 -6.376,2.302c-2.959,-1.135 -4.087,-5.287 -1.682,-7.597c0.48,-0.462 1.062,-0.822 1.699,-1.064l-0.031,-2.582Zm1.874,5.174c-1.587,0.028 -2.61,2.556 -0.717,3.333c1.328,0.545 3.18,-0.898 2.403,-2.366c-0.309,-0.583 -0.983,-0.971 -1.686,-0.967Zm0.967,-29.077l0.036,0l0,7.912l26.218,0l0,-10.909l-0.06,0l-0.01,-1.754l-26.243,-0.112l0.059,4.863Zm-63.004,7.767l0,0.005l59.968,0.094l-0.06,-4.928l-0.035,0l0,-5.935l-0.037,0l-0.023,-1.879l-64.227,-0.275l-0.009,2.154l-0.042,0l0,10.764l4.465,0Zm35.655,-22.186c-1.685,-2.336 -3.61,-4.471 -5.991,-6.109c-0.963,-0.664 -2.071,-1.19 -3.27,-1.21c-0.032,0 -0.063,0 -0.094,0c-3.213,0.039 -5.564,3.376 -6.259,5.971c-0.443,1.652 -0.119,3.594 1.341,4.76c2.095,1.675 5.094,2.092 8.043,2.459c3.299,0.411 6.636,0.5 9.964,0.435c-1.358,-2.044 -2.639,-4.142 -3.734,-6.306Zm22.779,-7.486c-2.661,0.024 -4.75,2.181 -6.529,4.128c-2.635,2.887 -4.774,6.148 -6.723,9.489l-0.001,0.003c5.452,0.126 11.105,0.131 16.06,-1.733c1.659,-0.624 3.205,-1.645 3.612,-3.361c0.659,-2.771 -1.158,-5.715 -3.255,-7.348c-0.888,-0.691 -1.99,-1.181 -3.164,-1.178Zm-16.165,12.182c2.8,-4.305 5.625,-8.783 6.333,-13.882c0.322,-2.325 -0.73,-4.839 -3.65,-5.641c-0.878,-0.241 -1.793,-0.342 -2.71,-0.352c-0.093,-0.001 -0.093,-0.001 -0.186,0c-2.409,0.026 -5.039,0.717 -6.039,2.826c-1.057,2.226 -0.081,4.88 0.766,7.114c0.612,1.611 1.342,3.179 2.153,4.712c1.205,1.693 2.311,3.445 3.333,5.223Z"/></g></svg>