<svg xmlns="http://www.w3.org/2000/svg" xmlns:xlink="http://www.w3.org/1999/xlink" version="1.1" x="0px" y="0px" viewBox="0 0 100 125" style="enable-background:new 0 0 100 100;" xml:space="preserve"><path d="M93.2,27.9H70.7c-0.3,0-0.5,0.2-0.5,0.5v43.3c0,0.3,0.2,0.5,0.5,0.5h22.5c1,0,1.8-0.8,1.8-1.8v-7.5c0-1.2-0.9-2-2.1-1.8  c-0.3,0.1-0.7,0.1-1,0.1c-6,0.4-11.4-4.4-11.8-10.4c-0.4-6.4,4.7-11.8,11.1-11.8c0.5,0,1.1,0,1.6,0.1c1.1,0.2,2.2-0.6,2.2-1.8v-7.5  C95,28.7,94.2,27.9,93.2,27.9z"/><path d="M66,27.9H6.8c-1,0-1.8,0.8-1.8,1.8v7.5c0,1.1,1,2,2.2,1.8c0.5-0.1,1.1-0.1,1.6-0.1c6.4,0,11.5,5.4,11.1,11.8  c-0.4,6.1-5.7,10.8-11.8,10.4c-0.3,0-0.7-0.1-1-0.1C5.9,60.8,5,61.7,5,62.8v7.5c0,1,0.8,1.8,1.8,1.8H66c0.3,0,0.5-0.2,0.5-0.5V28.3  C66.5,28.1,66.3,27.9,66,27.9z M50.6,45.5C50.6,45.5,50.6,45.5,50.6,45.5c-0.4,0.4-3.4,3.4-5,4.5c-0.2,0.2-0.3,0.5-0.2,0.7l4.8,9.5  c0.1,0.2,0.1,0.5-0.1,0.6l-0.9,1c-0.2,0.2-0.6,0.3-0.8,0l-7.3-6.5c-0.2-0.2-0.5-0.2-0.7,0l-6.5,5c-0.2,0.1-0.3,0.4-0.2,0.6l0.6,2.6  c0,0.2,0,0.4-0.1,0.5c-0.2,0.2-0.6,0.3-0.8,0L28,59.2c-0.2-0.2-0.3-0.6,0-0.8c0-0.1,0.5-0.1,1-0.1h0l2.1,0.3c0.2,0,0.5-0.1,0.6-0.3  l4.1-7.1c0.1-0.2,0.1-0.5-0.1-0.7l-7.4-6.5c-0.2-0.2-0.3-0.6,0-0.8l0.8-1c0.2-0.2,0.4-0.2,0.6-0.2l10,3.6c0.3,0.1,0.6,0,0.7-0.3  c1-1.7,3.5-5.1,3.8-5.4c0,0,0,0,0.1-0.1c4.1-4,6.5-0.9,6.5-0.9S54.1,41,50.6,45.5z"/><text x="0" y="115" fill="#000000" font-size="5px" font-weight="bold" font-family="'Helvetica Neue', Helvetica, Arial-Unicode, Arial, Sans-serif">Created by Arfan Khan Kamol</text><text x="0" y="120" fill="#000000" font-size="5px" font-weight="bold" font-family="'Helvetica Neue', Helvetica, Arial-Unicode, Arial, Sans-serif">from the Noun Project</text></svg>