<?xml version="1.0" encoding="UTF-8" standalone="no"?><!DOCTYPE svg PUBLIC "-//W3C//DTD SVG 1.1//EN" "http://www.w3.org/Graphics/SVG/1.1/DTD/svg11.dtd"><svg width="100%" height="100%" viewBox="0 0 80 100" version="1.1" xmlns="http://www.w3.org/2000/svg" xmlns:xlink="http://www.w3.org/1999/xlink" xml:space="preserve" xmlns:serif="http://www.serif.com/" style="fill-rule:evenodd;clip-rule:evenodd;stroke-linejoin:round;stroke-miterlimit:2;"><path d="M78.4,69.371l-20,0c-0.267,0 -0.444,-0.175 -0.444,-0.438l0,-37.866c0,-0.263 0.177,-0.438 0.444,-0.438l20,0c0.889,0 1.6,0.7 1.6,1.662l0,6.559c0,1.049 -0.978,1.749 -1.956,1.574c-0.444,-0.087 -0.977,-0.087 -1.422,-0.087c-5.689,0 -10.222,4.722 -9.866,10.319c0.355,5.247 5.155,9.445 10.488,9.095c0.267,0 0.623,0 0.889,-0.088c1.067,-0.174 1.867,0.525 1.867,1.575l0,6.559c0,0.874 -0.711,1.574 -1.6,1.574Zm-75.973,-9.735c0.116,0.015 0.229,0.027 0.329,0.027c5.422,0.35 10.133,-3.76 10.488,-9.095c0.356,-5.597 -4.177,-10.319 -9.866,-10.319c-0.445,0 -0.978,0 -1.422,0.088c-1.067,0.174 -1.956,-0.613 -1.956,-1.575l0,-6.559c0,-0.874 0.711,-1.574 1.6,-1.574l52.622,0c0.267,0 0.445,0.175 0.445,0.35l0,37.867c0,0.262 -0.178,0.437 -0.445,0.437l-52.622,0c-0.889,0 -1.6,-0.699 -1.6,-1.574l0,-6.559c0,-0.962 0.8,-1.749 1.867,-1.574c0.1,0 0.212,0.012 0.328,0.028l0.232,0.032Zm36.048,-20.389c-0.925,0.004 -2.118,0.423 -3.542,1.789l-0.089,0.088c-0.266,0.262 -2.488,3.235 -3.377,4.722c-0.064,0.189 -0.22,0.287 -0.402,0.295l-0.023,0c-0.064,0 -0.131,-0.011 -0.198,-0.033l-8.888,-3.148c-0.178,0 -0.356,0 -0.534,0.175l-0.711,0.875c-0.267,0.174 -0.178,0.524 0,0.699l6.578,5.685c0.178,0.174 0.178,0.437 0.089,0.612l-3.645,6.209c-0.086,0.169 -0.339,0.257 -0.516,0.262l-0.017,0l-1.867,-0.262c-0.444,0 -0.889,0 -0.889,0.087c-0.266,0.175 -0.177,0.525 0,0.7l4.8,4.198c0.081,0.118 0.198,0.166 0.319,0.165l0.012,0c0.141,-0.004 0.286,-0.072 0.381,-0.165c0.088,-0.088 0.088,-0.263 0.088,-0.438l-0.533,-2.273c-0.089,-0.175 0,-0.438 0.178,-0.525l5.778,-4.373c0.089,-0.087 0.2,-0.131 0.311,-0.131l0.021,0.001c0.104,0.005 0.207,0.048 0.29,0.13l6.489,5.685c0.08,0.119 0.197,0.166 0.318,0.165l0.012,0c0.142,-0.004 0.286,-0.072 0.381,-0.165l0.8,-0.875c0.178,-0.087 0.178,-0.35 0.089,-0.525l-4.267,-8.308c-0.089,-0.174 0,-0.437 0.178,-0.612c1.422,-0.962 4.089,-3.585 4.444,-3.935c3.111,-3.935 0.178,-5.772 0.178,-5.772c0,0 -0.772,-0.981 -2.18,-1.001l-0.056,-0.001Z" style="fill-rule:nonzero;"/></svg>