<?xml version="1.0" encoding="UTF-8" standalone="no"?>
<!DOCTYPE svg PUBLIC "-//W3C//DTD SVG 1.1//EN" "http://www.w3.org/Graphics/SVG/1.1/DTD/svg11.dtd">
<svg width="100%" height="100%" viewBox="0 0 80 100" version="1.1" xmlns="http://www.w3.org/2000/svg" xmlns:xlink="http://www.w3.org/1999/xlink" xml:space="preserve" xmlns:serif="http://www.serif.com/" style="fill-rule:evenodd;clip-rule:evenodd;stroke-linejoin:round;stroke-miterlimit:2;">
    <path d="M78.4,30.629C79.289,30.629 80,31.329 80,32.291L80,38.85C80,39.899 79.022,40.599 78.044,40.424C77.6,40.337 77.067,40.337 76.622,40.337C70.933,40.337 66.4,45.059 66.756,50.656C67.111,55.903 71.911,60.101 77.244,59.751C77.511,59.751 77.867,59.751 78.133,59.663C79.2,59.489 80,60.188 80,61.238L80,67.797C80,68.671 79.289,69.371 78.4,69.371L58.4,69.371C58.133,69.371 57.956,69.196 57.956,68.933L57.956,31.067C57.956,30.804 58.133,30.629 58.4,30.629L78.4,30.629ZM54.222,30.629C54.489,30.629 54.667,30.804 54.667,30.979L54.667,68.846C54.667,69.108 54.489,69.283 54.222,69.283L1.6,69.283C0.711,69.283 0,68.584 0,67.709L0,61.15C0,60.188 0.8,59.401 1.867,59.576C2.133,59.576 2.489,59.663 2.756,59.663C8.178,60.013 12.889,55.903 13.244,50.568C13.6,44.971 9.067,40.249 3.378,40.249C2.933,40.249 2.4,40.249 1.956,40.337C0.889,40.511 0,39.724 0,38.762L0,32.203C0,31.329 0.711,30.629 1.6,30.629L54.222,30.629ZM40.533,46.021C40.178,46.371 37.511,48.994 36.089,49.956C35.911,50.131 35.822,50.394 35.911,50.568L40.178,58.876C40.267,59.051 40.267,59.314 40.089,59.401L39.289,60.276C39.111,60.451 38.756,60.538 38.578,60.276L32.089,54.591C31.911,54.416 31.644,54.416 31.467,54.591L25.689,58.964C25.511,59.051 25.422,59.314 25.511,59.489L26.044,61.762C26.044,61.937 26.044,62.112 25.956,62.2C25.778,62.374 25.422,62.462 25.244,62.2L20.444,58.002C20.267,57.827 20.178,57.477 20.444,57.302C20.444,57.215 20.889,57.215 21.333,57.215L23.2,57.477C23.378,57.477 23.644,57.39 23.733,57.215L27.378,51.006C27.467,50.831 27.467,50.568 27.289,50.394L20.711,44.709C20.533,44.534 20.444,44.184 20.711,44.01L21.422,43.135C21.6,42.96 21.778,42.96 21.956,42.96L30.844,46.108C31.111,46.196 31.378,46.108 31.467,45.846C32.356,44.359 34.578,41.386 34.844,41.124L34.933,41.036C38.578,37.538 40.711,40.249 40.711,40.249C40.711,40.249 43.644,42.086 40.533,46.021Z" style="fill-rule:nonzero;"/>
    <g transform="matrix(0.888889,0,0,0.874522,-4.44444,6.23017)">
        <path d="M50.6,45.5C50.2,45.9 47.2,48.9 45.6,50C45.4,50.2 45.3,50.5 45.4,50.7L50.2,60.2C50.3,60.4 50.3,60.7 50.1,60.8L49.2,61.8C49,62 48.6,62.1 48.4,61.8L41.1,55.3C40.9,55.1 40.6,55.1 40.4,55.3L33.9,60.3C33.7,60.4 33.6,60.7 33.7,60.9L34.3,63.5C34.3,63.7 34.3,63.9 34.2,64C34,64.2 33.6,64.3 33.4,64L28,59.2C27.8,59 27.7,58.6 28,58.4C28,58.3 28.5,58.3 29,58.3L31.1,58.6C31.3,58.6 31.6,58.5 31.7,58.3L35.8,51.2C35.9,51 35.9,50.7 35.7,50.5L28.3,44C28.1,43.8 28,43.4 28.3,43.2L29.1,42.2C29.3,42 29.5,42 29.7,42L39.7,45.6C40,45.7 40.3,45.6 40.4,45.3C41.4,43.6 43.9,40.2 44.2,39.9L44.3,39.8C48.4,35.8 50.8,38.9 50.8,38.9C50.8,38.9 54.1,41 50.6,45.5Z" style="fill-rule:nonzero;"/>
    </g>
</svg>
