<svg viewBox="0 0 100 100">
    <title>Tickets</title> 
    <path d="M78.4 69.4h-20c-.3 0-.4-.2-.4-.5V31.1c0-.3.1-.5.4-.5h20c.9 0 1.6.7 1.6 1.7v6.5c0 1.1-1 1.8-2 1.6h-1.4a9.8 9.8 0 0 0-9.8 10.3 10 10 0 0 0 10.4 9h1c1-.2 1.8.5 1.8 1.5v6.6c0 .9-.7 1.6-1.6 1.6zm-76-9.8h.4a9.9 9.9 0 0 0 10.4-9A9.8 9.8 0 0 0 2 40.3c-1.1.2-2-.6-2-1.5v-6.6c0-.9.7-1.6 1.6-1.6h52.6c.3 0 .5.2.5.4v37.8c0 .3-.2.5-.5.5H1.6c-.9 0-1.6-.7-1.6-1.6v-6.6c0-1 .8-1.7 1.9-1.5h.5zm36-20.4c-.8 0-2 .5-3.5 1.8v.1a53 53 0 0 0-3.8 5h-.3L22 43l-.6.1-.7 1c-.3 0-.2.4 0 .6l6.6 5.7c.2.2.2.4 0 .6l-3.6 6.2c0 .2-.3.3-.5.3l-1.9-.3-.9.1c-.2.2-.1.5 0 .7l4.8 4.2.4.2.4-.2v-.4l-.5-2.3c0-.2 0-.4.2-.5l5.8-4.4.3-.1h.3l6.5 5.8.3.1.4-.1.8-.9c.2 0 .2-.3 0-.5L36 50.6c0-.2 0-.5.2-.6 1.4-1 4-3.6 4.4-4 3.1-4 .2-5.8.2-5.8s-.8-1-2.2-1z"/>
</svg>
