<svg viewBox="0 0 100 100">
    <title>Tickets</title>
    <symbol id="single">
        <path fill="#fff" d="M74.8 24.4h17.6c4.2 0 7.5 3.4 7.5 7.5v13.4c-2.3 0-4.2 2.1-4.2 4.7s1.9 4.7 4.2 4.7v13.4c0 4.2-3.3 7.5-7.5 7.5H74.8c0-1.2-.9-2.3-2-2.3-1 0-1.8 1-1.8 2.3H10a7.5 7.5 0 0 1-7.6-7.5V54.7c2.4 0 4.3-2 4.3-4.7 0-2.6-2-4.7-4.3-4.7V32c0-4.1 3.4-7.5 7.5-7.5H71c0 1.3.9 2.4 1.9 2.4 1 0 1.9-1 1.9-2.4z"/>
        <!-- <path fill-opacity=".2" d="M66.3 66.6c1 0 1 1.7 0 1.8H54.2c-1 0-1.1-1.7 0-1.8 4-.2 8-.2 12 0zm0-3.4c.9 0 1 1.7 0 1.8h-7.4c-.9-.1-1.2-1.7 0-1.8h7.4z" /> -->
        <path fill="currentColor" d="M92.4 75.6H91V24.4h1.4c4.2 0 7.5 3.4 7.5 7.5v13.4c-2.3 0-4.2 2.1-4.2 4.7s1.9 4.7 4.2 4.7v13.4c0 4.2-3.3 7.5-7.5 7.5zM43.7 44.8c5.3 0 9.7 4.3 9.7 9.6 0 5.4-9.7 15.1-9.7 15.1s-9.6-9.7-9.6-15c0-5.4 4.3-9.7 9.6-9.7zm1.5 4.5a4.7 4.7 0 1 1 0 9.5 4.7 4.7 0 0 1 0-9.5z"/>
        <!-- <path style="mix-blend-mode: hard-light;" d="M71.7 28.4h17.6c3.2 0 5.9 2.7 5.9 6v6.2H0v-6.3c0-3.2 2.6-5.9 5.9-5.9h60.8v.5a2.5 2.5 0 1 0 4.9-.5z" /> -->
        <!-- <path fill="#fff" fill-opacity=".3" d="M71.7 28.4h17.6c3.2 0 5.9 2.7 5.9 6v6.2H0v-6.3c0-3.2 2.6-5.9 5.9-5.9h60.8v.5a2.5 2.5 0 1 0 4.9-.5z"/> -->
        <path d="M70.5 75.7H9.9c-4 0-7.4-3.4-7.5-7.4V55.5c.1-1 .7-.9 1.4-1.2 3.3-1.5 3.5-7.5-.5-8.8 0 0-.8-.3-.9-1V31.8c0-3.9 3.5-7.4 7.5-7.4H70.7c1.2.4.5 1.2 1.1 1.8.8.8 2.3.2 2.3-1 0 0 .2-.8.9-.8h17.5c4 0 7.4 3.4 7.5 7.4v12.8c-.1 1-.7.9-1.3 1.1-3.5 1.5-3.8 7.7.4 9 0 0 .8.2.9.9v12.8c0 3.9-3.5 7.4-7.5 7.4H75c-1.5-.1-.6-1.5-1.7-2-.8-.4-1.8.3-1.9 1.2 0 0 0 .7-.9.8zM72 28.1c-1-.2-1.9-.9-2.2-2-20 0-40-.3-60 0-1 0-1.4.1-2 .4-2.1.8-3.6 3-3.6 5.3v12.1l.3.1c4.6 2.2 4.9 10-.2 12.1 0 4.3-.3 8.2 0 12.6a5.9 5.9 0 0 0 5.6 5.2h59.9c.1-.5.2-.5.3-.7l.7-.8c1.5-1.2 4.2-.5 4.9 1.5 5.8 0 11.5.4 17.3 0a5.9 5.9 0 0 0 5.2-5.7v-12l-.3-.2c-4.7-2-5-10 .2-12.1 0-4.3.3-8.2 0-12.6a5.9 5.9 0 0 0-5.6-5.2H75.8l-.1.2a3 3 0 0 1-1.9 1.7v.6a1 1 0 1 1-1.8 0v-.5zm1.8 41.5v.1a1 1 0 1 1-1.8 0v-.9a1 1 0 1 1 1.8 0v.8zm-39.8-3c1 .1 1 1.6 0 1.8-7.7.4-15.4 0-23.1 0-1 0-1.3-1.7-.1-1.8 7.7-.4 15.5-.4 23.2 0zm12.5-23.8c7 .1 12.5 7.9 6.5 16.8-2 2.8-4.2 5.4-6.5 7.8 0 0-13-10.7-8.8-19.2 1.7-3.3 5-5.4 8.8-5.4zm27.3 22.3a1 1 0 1 1-1.8 0v-.8-.1a1 1 0 1 1 1.8 0v.9zM19 63c.9.1 1 1.8 0 1.9h-8.2c-.9-.1-1-1.8 0-1.8H19zm27.3-18.5c-5.6.1-10.2 6-5.4 13.3 2 3 5.5 7 5.5 7 4.6-5 9.7-11.2 6.8-16.3a8 8 0 0 0-7-4zm27.5 16a1 1 0 1 1-1.8 0v-.9-.1a1 1 0 1 1 1.8 0v1zm13.5-.9c.5 0 .5.9 0 1H77c-.5-.1-.5-.9 0-1h10.4zm0-2c.5 0 .5.8 0 .8-3.5.2-7 .2-10.4 0-.5 0-.5-.8 0-.9h10.4zm-61.8-4.3l.2 1.2c0 .4 0 .7-.2 1a2 2 0 0 1-.8 1 2.4 2.4 0 0 1-2.8 0c-.4-.2-.7-.6-.8-1l-.2-1h1.3v.6a1 1 0 0 0 1.1.8 1 1 0 0 0 1-.7l.1-.8-.1-1a1 1 0 0 0-1-.5c-.1 0-.3 0-.5.2h-.2l-.5-.7v-.1-.1l1.8-1.8h-2.7-.1v-1-.1h4.4a.1.1 0 0 1 .1 0v1.2L24 52.2c.7.1 1.2.5 1.5 1.2zM13.7 57h-1l-.1-.2v-6.1l-1.2.3h-.1V50 50l1.2-.6h1.3V57zm2.6-5.2H15v-.6c0-.4.1-.7.3-1l.9-.7a3 3 0 0 1 1.2-.2c.5 0 1 0 1.3.2l.8.8c.2.3.3.7.3 1 0 .6-.3 1.3-1 2.1l-1.7 2-.4.4H20V57h-4.7-.1V56v-.2l2-2.2.4-.6c.7-.7 1-1.3 1-1.7a1 1 0 0 0-.3-.8l-.8-.2c-.3 0-.6 0-.8.2a1 1 0 0 0-.3.8v.3l-.1.1zM73.8 56a1 1 0 1 1-1.8 0V55a1 1 0 1 1 1.8 0v.9zm13.5-.5c.5 0 .5.9 0 1H77c-.5-.1-.5-.9 0-1h10.4zm0-2c.5 0 .5.8 0 .8-3.5.2-7 .2-10.4 0-.5 0-.5-.8 0-.9h10.4zm-13.5-2.1a1 1 0 1 1-1.8 0v-.8-.1a1 1 0 1 1 1.8 0v.9zm13.5 0c.5 0 .5.8 0 .8-3.5.2-7 .2-10.4 0-.5 0-.5-.8 0-.9h10.4zm0-2.2c.5.1.5.9 0 1H77c-.5-.1-.5-.9 0-1h10.4zm0-2c.5 0 .5.8 0 .8-3.5.2-7 .2-10.4 0-.5 0-.5-.8 0-.9h10.4zm-13.5-.4v.1a1 1 0 1 1-1.8 0V46a1 1 0 1 1 1.8 0v.8zM87.3 45c.5.1.5.9 0 1H77c-.5-.1-.5-.9 0-1h10.4zm0-2c.5 0 .5.8 0 .8-3.5.2-7 .2-10.4 0-.5 0-.5-.8 0-.9h10.4zm-13.5-.7a1 1 0 1 1-1.8 0v-.8-.1a1 1 0 1 1 1.8 0v.9zm13.5-1.5c.5.1.5.9 0 1H77c-.5-.1-.5-.9 0-1h10.4zm-13.5-3a1 1 0 1 1-1.8 0v-.9-.1a1 1 0 1 1 1.8.1v.8zM27 34.4c1 .1 1 1.7 0 1.8-5.3.3-10.7 0-16.1 0-1 0-1.2-1.6-.1-1.8 5.4-.2 10.8-.2 16.2 0zm46.8-1.3a1 1 0 1 1-1.8 0v-.9a1 1 0 1 1 1.8 0v.9zm-54.7-2.5c1 .1 1.1 1.7 0 1.8h-8.3c-.9 0-1-1.7 0-1.8h8.3z"/>
    </symbol>
    <symbol id="combined">
        <use x=15 y=-10 style="transform: rotate(15deg)" xlink:href="#single"></use>
        <use y=15 xlink:href="#single"></use>
    </symbol>
</svg>
