<?xml version="1.0" encoding="UTF-8" standalone="no"?><!DOCTYPE svg PUBLIC "-//W3C//DTD SVG 1.1//EN" "http://www.w3.org/Graphics/SVG/1.1/DTD/svg11.dtd"><svg width="100%" height="100%" viewBox="0 0 100 100" version="1.1" xmlns="http://www.w3.org/2000/svg" xmlns:xlink="http://www.w3.org/1999/xlink" xml:space="preserve" xmlns:serif="http://www.serif.com/" style="fill-rule:evenodd;clip-rule:evenodd;stroke-linejoin:round;stroke-miterlimit:2;"><g id="ticket"><path id="whitefill" d="M74.76,24.396l17.656,0c4.147,0 7.514,3.367 7.514,7.514l0,13.406c-2.362,0 -4.279,2.104 -4.279,4.697c0,2.592 1.917,4.696 4.279,4.696l0,13.406c0,4.147 -3.367,7.514 -7.514,7.514l-17.657,0c-0.025,-1.273 -0.853,-2.296 -1.87,-2.296c-1.017,0 -1.846,1.023 -1.871,2.296l-61.082,0c-4.147,0 -7.514,-3.367 -7.514,-7.514l0,-13.406c2.362,0 4.28,-2.104 4.28,-4.696c0,-2.593 -1.918,-4.697 -4.28,-4.697l0,-13.406c0,-4.147 3.367,-7.514 7.514,-7.514l61.081,0l0,0.004c0,1.315 0.839,2.383 1.872,2.383c1.033,0 1.871,-1.068 1.871,-2.383l0,-0.004Z" style="fill:#fff;"/><path id="bluefill---opacity" serif:id="bluefill - opacity" d="M66.287,66.577c0.938,0.101 1.024,1.7 0,1.811c-4.032,0.144 -8.069,0.002 -12.103,0.002c-0.965,-0.035 -1.125,-1.699 -0.065,-1.813c4.054,-0.144 8.115,-0.144 12.168,0Zm-0.014,-3.425c0.914,0.077 1.113,1.718 0,1.812c-2.454,0.069 -4.911,0.069 -7.365,0c-0.885,-0.075 -1.2,-1.711 0,-1.812c2.454,-0.069 4.911,-0.069 7.365,0Z" style="fill:#2f507d;fill-opacity:0.2;"/><path id="redfill" d="M92.416,75.629l-1.434,0l0,-51.233l1.434,0c4.147,0 7.514,3.367 7.514,7.514l0,13.406c-2.362,0 -4.279,2.104 -4.279,4.697c0,2.592 1.917,4.696 4.279,4.696l0,13.406c0,4.147 -3.367,7.514 -7.514,7.514Zm-48.704,-30.835c5.32,0 9.639,4.319 9.639,9.639c0,5.32 -9.639,15.084 -9.639,15.084c0,0 -9.639,-9.764 -9.639,-15.084c0,-5.32 4.319,-9.639 9.639,-9.639Zm1.441,4.475c2.617,0 4.742,2.125 4.742,4.742c0,2.617 -2.125,4.741 -4.742,4.741c-2.617,0 -4.741,-2.124 -4.741,-4.741c0,-2.617 2.124,-4.742 4.741,-4.742Z" style="fill:#fd6429;"/><path id="bluefilll---hard-light" serif:id="bluefilll - hard light" d="M71.69,28.417l17.566,0c3.254,0 5.896,2.641 5.896,5.895l0,6.294l-95.077,0l0,-6.294c0,-3.254 2.641,-5.895 5.895,-5.895l60.852,0c-0.026,0.141 -0.039,0.287 -0.039,0.436c0,1.365 1.108,2.472 2.473,2.472c1.364,0 2.472,-1.107 2.472,-2.472c0,-0.149 -0.013,-0.295 -0.038,-0.436Z" style="fill:#275287;"/><path id="white-opacity" serif:id="white opacity" d="M71.69,28.417l17.566,0c3.254,0 5.896,2.641 5.896,5.895l0,6.294l-95.077,0l0,-6.294c0,-3.254 2.641,-5.895 5.895,-5.895l60.852,0c-0.026,0.141 -0.039,0.287 -0.039,0.436c0,1.365 1.108,2.472 2.473,2.472c1.364,0 2.472,-1.107 2.472,-2.472c0,-0.149 -0.013,-0.295 -0.038,-0.436Z" style="fill:#fff;fill-opacity:0.26;"/><path id="bluefill" d="M70.505,75.725l-60.632,0c-3.936,-0.05 -7.417,-3.386 -7.469,-7.469l0,-12.783c0.096,-1.03 0.697,-0.826 1.382,-1.131c3.331,-1.567 3.548,-7.544 -0.525,-8.859c0,0 -0.794,-0.255 -0.857,-0.929l0,-12.81c0.05,-3.94 3.475,-7.419 7.469,-7.469l60.661,0c0.059,0.006 0.118,0.012 0.177,0.017c1.196,0.364 0.495,1.218 1.116,1.839c0.724,0.725 2.253,0.215 2.247,-0.945c0,0 0.203,-0.842 0.908,-0.911l17.548,0c3.938,0.05 7.418,3.386 7.47,7.469l0,12.789c-0.097,1.031 -0.706,0.841 -1.322,1.089c-3.45,1.479 -3.758,7.654 0.447,8.941c0,0 0.811,0.249 0.875,0.931l0,12.762c-0.05,3.945 -3.475,7.418 -7.469,7.469l-17.581,0c-1.465,-0.14 -0.576,-1.514 -1.663,-2.026c-0.79,-0.372 -1.835,0.254 -1.876,1.16c0,0 -0.076,0.786 -0.906,0.866Zm1.516,-47.65c-0.989,-0.199 -1.878,-0.832 -2.252,-1.938l-0.014,-0.047c-20.008,0 -40.017,-0.251 -60.022,0.002c-1.001,0.038 -1.313,0.147 -1.928,0.39c-2.101,0.829 -3.557,2.973 -3.586,5.274l0,12.142c0.109,0.043 0.216,0.089 0.324,0.137c4.57,2.151 4.846,9.924 -0.244,12.062l-0.08,0.032c0,4.229 -0.263,8.16 0.016,12.557c0.253,2.839 2.774,5.188 5.65,5.224l59.869,0c0.162,-0.517 0.209,-0.507 0.33,-0.697c0.184,-0.29 0.416,-0.549 0.684,-0.764c1.547,-1.242 4.198,-0.546 4.925,1.435l0.009,0.026c5.801,0 11.456,0.352 17.259,-0.016c2.839,-0.253 5.188,-2.774 5.224,-5.65l0,-12.083c-0.11,-0.042 -0.219,-0.087 -0.328,-0.134c-4.646,-2.11 -4.969,-10.026 0.248,-12.13l0.08,-0.031c0,-4.227 0.262,-8.155 -0.016,-12.552c-0.253,-2.839 -2.774,-5.188 -5.65,-5.224l-16.758,0c-0.029,0.094 -0.03,0.093 -0.062,0.188c-0.333,0.845 -1.037,1.414 -1.852,1.685l0,0.633l-0.005,0c0.003,0.032 0.005,0.065 0.005,0.097c0,0.504 -0.409,0.913 -0.913,0.913c-0.504,0 -0.913,-0.409 -0.913,-0.913c0,-0.033 0.002,-0.065 0.005,-0.097l-0.005,0l0,-0.521Zm1.821,41.555c0.003,0.032 0.005,0.064 0.005,0.097c0,0.504 -0.409,0.913 -0.913,0.913c-0.504,0 -0.913,-0.409 -0.913,-0.913c0,-0.033 0.002,-0.065 0.005,-0.097l-0.005,0l0,-0.816l0.005,0c-0.003,-0.032 -0.005,-0.064 -0.005,-0.097c0,-0.504 0.409,-0.913 0.913,-0.913c0.504,0 0.913,0.409 0.913,0.913c0,0.032 -0.002,0.065 -0.005,0.097l0.005,0l0,0.816l-0.005,0Zm-39.834,-3.051c0.907,0.135 1.063,1.649 0,1.806c-7.704,0.379 -15.426,0.005 -23.139,0.005c-0.991,-0.049 -1.238,-1.64 -0.089,-1.811c7.734,-0.38 15.495,-0.38 23.228,0Zm12.48,-23.77c6.97,0.132 12.503,7.852 6.464,16.748c-1.906,2.809 -4.124,5.405 -6.481,7.862c0,0 -13,-10.696 -8.744,-19.255c1.627,-3.272 4.958,-5.38 8.761,-5.355Zm27.354,22.262c0.003,0.032 0.005,0.064 0.005,0.097c0,0.504 -0.409,0.913 -0.913,0.913c-0.504,0 -0.913,-0.409 -0.913,-0.913c0,-0.033 0.002,-0.066 0.005,-0.097l-0.005,0l0,-0.816l0.005,0c-0.003,-0.032 -0.005,-0.065 -0.005,-0.098c0,-0.504 0.409,-0.913 0.913,-0.913c0.504,0 0.913,0.409 0.913,0.913c0,0.033 -0.002,0.065 -0.005,0.098l0.005,0l0,0.816l-0.005,0Zm-54.866,-1.919c0.906,0.081 1.085,1.715 0,1.812c-2.719,0.08 -5.442,0.08 -8.161,0c-0.917,-0.082 -1.104,-1.714 0,-1.812c2.719,-0.081 5.442,-0.081 8.161,0Zm27.286,-18.529c-5.553,0.106 -10.166,5.952 -5.382,13.32c1.959,3.017 5.483,6.937 5.483,6.937c4.601,-5.049 9.764,-11.152 6.788,-16.325c-1.382,-2.402 -4.079,-3.95 -6.889,-3.932Zm27.58,15.888c0.003,0.032 0.005,0.065 0.005,0.097c0,0.504 -0.409,0.913 -0.913,0.913c-0.504,0 -0.913,-0.409 -0.913,-0.913c0,-0.032 0.002,-0.065 0.005,-0.097l-0.005,0l0,-0.816l0.005,0c-0.003,-0.032 -0.005,-0.064 -0.005,-0.097c0,-0.504 0.409,-0.913 0.913,-0.913c0.504,0 0.913,0.409 0.913,0.913c0,0.033 -0.002,0.065 -0.005,0.097l0.005,0l0,0.816l-0.005,0Zm13.475,-0.79c0.478,0.069 0.478,0.835 0,0.904c-3.474,0.165 -6.959,0.165 -10.432,0c-0.464,-0.067 -0.512,-0.83 0,-0.904c3.473,-0.165 6.958,-0.165 10.432,0Zm0,-2.097c0.478,0.069 0.478,0.835 0,0.903c-3.474,0.166 -6.959,0.166 -10.432,0c-0.464,-0.066 -0.512,-0.829 0,-0.903c3.473,-0.165 6.958,-0.165 10.432,0Zm-61.829,-4.272c0.145,0.349 0.218,0.748 0.218,1.198c0,0.407 -0.062,0.766 -0.185,1.078c-0.167,0.458 -0.443,0.811 -0.828,1.062c-0.384,0.25 -0.849,0.376 -1.394,0.376c-0.537,0 -1.003,-0.137 -1.399,-0.409c-0.395,-0.272 -0.677,-0.64 -0.844,-1.105c-0.087,-0.225 -0.138,-0.519 -0.152,-0.882c0,-0.087 0.044,-0.131 0.131,-0.131l1.012,0c0.087,0 0.131,0.044 0.131,0.131c0.014,0.232 0.051,0.417 0.109,0.555c0.065,0.233 0.187,0.416 0.365,0.55c0.177,0.134 0.393,0.202 0.647,0.202c0.48,0 0.81,-0.218 0.991,-0.654c0.095,-0.21 0.142,-0.482 0.142,-0.816c0,-0.371 -0.055,-0.675 -0.163,-0.915c-0.189,-0.407 -0.516,-0.61 -0.98,-0.61c-0.124,0 -0.291,0.073 -0.501,0.218c-0.029,0.015 -0.055,0.022 -0.077,0.022c-0.036,0 -0.072,-0.022 -0.108,-0.066l-0.501,-0.696c-0.022,-0.037 -0.033,-0.066 -0.033,-0.088c0,-0.036 0.015,-0.069 0.044,-0.098l1.796,-1.764c0.015,-0.014 0.018,-0.029 0.011,-0.043c-0.007,-0.015 -0.022,-0.022 -0.043,-0.022l-2.723,0c-0.036,0 -0.067,-0.013 -0.092,-0.038c-0.026,-0.025 -0.038,-0.056 -0.038,-0.093l0,-0.827c0,-0.036 0.012,-0.067 0.038,-0.093c0.025,-0.025 0.056,-0.038 0.092,-0.038l4.345,0c0.036,0 0.067,0.013 0.093,0.038c0.025,0.026 0.038,0.057 0.038,0.093l0,0.947c0,0.066 -0.022,0.12 -0.066,0.164l-1.557,1.568c-0.029,0.029 -0.014,0.05 0.044,0.065c0.675,0.094 1.154,0.468 1.437,1.121Zm-11.782,3.626l-1.001,0c-0.037,0 -0.067,-0.012 -0.093,-0.038c-0.025,-0.025 -0.038,-0.056 -0.038,-0.092l0,-6.185c0,-0.015 -0.007,-0.027 -0.022,-0.038c-0.014,-0.011 -0.029,-0.013 -0.043,-0.006l-1.089,0.338c-0.015,0.007 -0.033,0.011 -0.055,0.011c-0.029,0 -0.052,-0.011 -0.07,-0.033c-0.019,-0.022 -0.028,-0.051 -0.028,-0.087l-0.032,-0.719c0,-0.072 0.029,-0.123 0.087,-0.152l1.176,-0.588c0.058,-0.022 0.112,-0.033 0.163,-0.033l1.045,0c0.037,0 0.068,0.013 0.093,0.038c0.025,0.026 0.038,0.057 0.038,0.093l0,7.361c0,0.036 -0.013,0.067 -0.038,0.092c-0.025,0.026 -0.056,0.038 -0.093,0.038Zm2.548,-5.172l-1.012,0c-0.037,0 -0.067,-0.012 -0.093,-0.038c-0.025,-0.025 -0.038,-0.056 -0.038,-0.092l0,-0.469c0.015,-0.392 0.127,-0.733 0.338,-1.023c0.21,-0.291 0.495,-0.516 0.854,-0.675c0.36,-0.16 0.761,-0.24 1.204,-0.24c0.486,0 0.911,0.091 1.274,0.272c0.363,0.182 0.642,0.43 0.838,0.746c0.196,0.316 0.294,0.67 0.294,1.062c0,0.595 -0.316,1.281 -0.947,2.058c-0.349,0.435 -0.922,1.089 -1.721,1.96l-0.413,0.457c-0.015,0.015 -0.02,0.029 -0.017,0.044c0.004,0.014 0.016,0.021 0.038,0.022l3.104,0c0.036,0 0.067,0.012 0.092,0.038c0.026,0.025 0.038,0.056 0.038,0.092l0,0.828c0,0.036 -0.012,0.067 -0.038,0.092c-0.025,0.026 -0.056,0.038 -0.092,0.038l-4.683,0c-0.036,0 -0.067,-0.012 -0.092,-0.038c-0.026,-0.025 -0.038,-0.056 -0.038,-0.092l0,-0.784c0,-0.066 0.022,-0.12 0.065,-0.164c0.552,-0.588 1.191,-1.31 1.917,-2.166l0.511,-0.599c0.668,-0.777 1.002,-1.365 1.002,-1.764c0,-0.298 -0.105,-0.541 -0.316,-0.73c-0.21,-0.189 -0.482,-0.283 -0.816,-0.283c-0.334,0 -0.605,0.094 -0.812,0.283c-0.206,0.189 -0.31,0.439 -0.31,0.751l0,0.284c0,0.036 -0.013,0.067 -0.038,0.092c-0.025,0.025 -0.056,0.038 -0.093,0.038Zm57.588,4.146c0.003,0.032 0.005,0.064 0.005,0.097c0,0.504 -0.409,0.913 -0.913,0.913c-0.504,0 -0.913,-0.409 -0.913,-0.913c0,-0.033 0.002,-0.065 0.005,-0.097l-0.005,0l0,-0.816l0.005,0c-0.003,-0.032 -0.005,-0.064 -0.005,-0.097c0,-0.504 0.409,-0.913 0.913,-0.913c0.504,0 0.913,0.409 0.913,0.913c0,0.032 -0.002,0.065 -0.005,0.097l0.005,0l0,0.816l-0.005,0Zm13.475,-0.425c0.464,0.067 0.511,0.83 0,0.903c-3.474,0.166 -6.959,0.166 -10.432,0c-0.464,-0.067 -0.512,-0.83 0,-0.903c3.473,-0.166 6.958,-0.166 10.432,0Zm0,-2.097c0.464,0.066 0.511,0.829 0,0.903c-3.474,0.165 -6.959,0.165 -10.432,0c-0.478,-0.069 -0.479,-0.835 0,-0.903c3.473,-0.166 6.958,-0.166 10.432,0Zm-13.475,-2.037c0.003,0.032 0.005,0.064 0.005,0.097c0,0.504 -0.409,0.913 -0.913,0.913c-0.504,0 -0.913,-0.409 -0.913,-0.913c0,-0.033 0.002,-0.065 0.005,-0.097l-0.005,0l0,-0.816l0.005,0c-0.003,-0.032 -0.005,-0.065 -0.005,-0.098c0,-0.503 0.409,-0.913 0.913,-0.913c0.504,0 0.913,0.41 0.913,0.913c0,0.033 -0.002,0.065 -0.005,0.098l0.005,0l0,0.816l-0.005,0Zm13.475,-0.061c0.464,0.067 0.511,0.83 0,0.904c-3.474,0.165 -6.959,0.165 -10.432,0c-0.478,-0.069 -0.479,-0.835 0,-0.904c3.473,-0.165 6.958,-0.165 10.432,0Zm0,-2.097c0.464,0.067 0.511,0.83 0,0.903c-3.474,0.166 -6.959,0.166 -10.432,0c-0.478,-0.068 -0.479,-0.834 0,-0.903c3.473,-0.165 6.958,-0.165 10.432,0Zm0,-2.097c0.464,0.067 0.511,0.83 0,0.903c-3.474,0.166 -6.959,0.166 -10.432,0c-0.464,-0.067 -0.512,-0.83 0,-0.903c3.473,-0.166 6.958,-0.166 10.432,0Zm-13.475,-0.305c0.003,0.033 0.005,0.065 0.005,0.097c0,0.504 -0.409,0.914 -0.913,0.914c-0.504,0 -0.913,-0.41 -0.913,-0.914c0,-0.032 0.002,-0.065 0.005,-0.097l-0.005,0l0,-0.816l0.005,0c-0.003,-0.032 -0.005,-0.064 -0.005,-0.097c0,-0.504 0.409,-0.913 0.913,-0.913c0.504,0 0.913,0.409 0.913,0.913c0,0.033 -0.002,0.065 -0.005,0.097l0.005,0l0,0.816l-0.005,0Zm13.475,-1.792c0.478,0.068 0.478,0.834 0,0.903c-3.474,0.165 -6.959,0.165 -10.432,0c-0.464,-0.067 -0.512,-0.83 0,-0.903c3.473,-0.166 6.958,-0.166 10.432,0Zm0,-2.098c0.478,0.069 0.478,0.835 0,0.904c-3.474,0.165 -6.959,0.165 -10.432,0c-0.464,-0.067 -0.512,-0.83 0,-0.904c3.473,-0.165 6.958,-0.165 10.432,0Zm-13.475,-0.669c0.003,0.032 0.005,0.064 0.005,0.097c0,0.504 -0.409,0.913 -0.913,0.913c-0.504,0 -0.913,-0.409 -0.913,-0.913c0,-0.033 0.002,-0.065 0.005,-0.097l-0.005,0l0,-0.816l0.005,0c-0.003,-0.032 -0.005,-0.064 -0.005,-0.097c0,-0.504 0.409,-0.913 0.913,-0.913c0.504,0 0.913,0.409 0.913,0.913c0,0.033 -0.002,0.065 -0.005,0.097l0.005,0l0,0.816l-0.005,0Zm13.475,-1.428c0.464,0.067 0.511,0.83 0,0.904c-3.474,0.165 -6.959,0.165 -10.432,0c-0.464,-0.067 -0.512,-0.83 0,-0.904c3.473,-0.165 6.958,-0.165 10.432,0Zm-13.475,-3.131c0.003,0.032 0.005,0.064 0.005,0.097c0,0.504 -0.409,0.913 -0.913,0.913c-0.504,0 -0.913,-0.409 -0.913,-0.913c0,-0.033 0.002,-0.065 0.005,-0.097l-0.005,0l0,-0.816l0.005,0c-0.003,-0.032 -0.005,-0.065 -0.005,-0.097c0,-0.504 0.409,-0.914 0.913,-0.914c0.504,0 0.913,0.41 0.913,0.914c0,0.032 -0.002,0.064 -0.005,0.097l0.005,0l0,0.816l-0.005,0Zm-46.792,-3.193c0.926,0.115 0.978,1.686 0,1.808c-5.389,0.223 -10.787,0.003 -16.181,0.003c-0.932,-0.038 -1.214,-1.669 -0.075,-1.811c5.414,-0.224 10.842,-0.224 16.256,0Zm46.792,-1.367c0.003,0.033 0.005,0.065 0.005,0.097c0,0.504 -0.409,0.914 -0.913,0.914c-0.504,0 -0.913,-0.41 -0.913,-0.914c0,-0.032 0.002,-0.065 0.005,-0.097l-0.005,0l0,-0.816l0.005,0c-0.003,-0.032 -0.005,-0.064 -0.005,-0.097c0,-0.504 0.409,-0.913 0.913,-0.913c0.504,0 0.913,0.409 0.913,0.913c0,0.033 -0.002,0.065 -0.005,0.097l0.005,0l0,0.816l-0.005,0Zm-54.713,-2.431c0.917,0.082 1.104,1.713 0,1.812c-2.77,0.082 -5.544,0.082 -8.313,0c-0.907,-0.081 -1.085,-1.715 0,-1.812c2.769,-0.082 5.543,-0.082 8.313,0Z" style="fill:#275287;"/></g></svg>