<svg xmlns="http://www.w3.org/2000/svg" xmlns:xlink="http://www.w3.org/1999/xlink" style="display: none"><symbol viewBox="0 0 1024 999" id="icon-youtube"><title>YouTube</title>  <g transform="matrix(6.39499,0,0,6.39499,-102.16,-114.737)"> <path d="M174.2,62.6C173.125,53.193 165.695,45.68 156.3,44.5C116.268,39.3 75.732,39.3 35.7,44.5C26.327,45.688 18.931,53.209 17.9,62.6C15.4,84.83 15.4,107.27 17.9,129.5C18.931,138.891 26.327,146.412 35.7,147.6C55.728,150.2 75.904,151.502 96.1,151.5C116.263,151.502 136.405,150.2 156.4,147.6C165.773,146.412 173.169,138.891 174.2,129.5C175.484,118.38 176.118,107.194 176.1,96C176.118,84.839 175.484,73.687 174.2,62.6ZM119.3,99.2L86.5,122.3C85.208,123.195 83.411,122.88 82.5,121.6C82.141,121.109 81.964,120.507 82,119.9L82,72C81.989,70.442 83.243,69.143 84.8,69.1C85.401,69.112 85.988,69.285 86.5,69.6L119.3,92.7C120.357,93.425 120.99,94.627 120.99,95.908C120.99,96.698 120.749,97.47 120.3,98.12L120.24,98.2C120.008,98.601 119.686,98.944 119.3,99.2Z"/> </g> </symbol></svg>