<svg xmlns="http://www.w3.org/2000/svg" xmlns:xlink="http://www.w3.org/1999/xlink" style="display: none"><symbol viewBox="0 0 100 100" id="nested-sprites"><title>Tickets</title>  <symbol id="nested-sprites-combined"> <use x="15" y="-15" xlink:href="#single" style="transform: rotate(15deg)"/> <use x="00" y="15" xlink:href="#single"/> </symbol> </symbol><symbol viewBox="0 0 100 100" id="one-color"><title>Tickets</title>  <path d="M78.4 69.4h-20c-.3 0-.4-.2-.4-.5V31.1c0-.3.1-.5.4-.5h20c.9 0 1.6.7 1.6 1.7v6.5c0 1.1-1 1.8-2 1.6h-1.4a9.8 9.8 0 0 0-9.8 10.3 10 10 0 0 0 10.4 9h1c1-.2 1.8.5 1.8 1.5v6.6c0 .9-.7 1.6-1.6 1.6zm-76-9.8h.4a9.9 9.9 0 0 0 10.4-9A9.8 9.8 0 0 0 2 40.3c-1.1.2-2-.6-2-1.5v-6.6c0-.9.7-1.6 1.6-1.6h52.6c.3 0 .5.2.5.4v37.8c0 .3-.2.5-.5.5H1.6c-.9 0-1.6-.7-1.6-1.6v-6.6c0-1 .8-1.7 1.9-1.5h.5zm36-20.4c-.8 0-2 .5-3.5 1.8v.1a53 53 0 0 0-3.8 5h-.3L22 43l-.6.1-.7 1c-.3 0-.2.4 0 .6l6.6 5.7c.2.2.2.4 0 .6l-3.6 6.2c0 .2-.3.3-.5.3l-1.9-.3-.9.1c-.2.2-.1.5 0 .7l4.8 4.2.4.2.4-.2v-.4l-.5-2.3c0-.2 0-.4.2-.5l5.8-4.4.3-.1h.3l6.5 5.8.3.1.4-.1.8-.9c.2 0 .2-.3 0-.5L36 50.6c0-.2 0-.5.2-.6 1.4-1 4-3.6 4.4-4 3.1-4 .2-5.8.2-5.8s-.8-1-2.2-1z"/> </symbol><symbol viewBox="0 0 100 100" id="shades"><title>Tickets</title>  <symbol id="shades-single"> <path fill="#fff" d="M74.8 24.4h17.6c4.2 0 7.5 3.4 7.5 7.5v13.4c-2.3 0-4.2 2.1-4.2 4.7s1.9 4.7 4.2 4.7v13.4c0 4.2-3.3 7.5-7.5 7.5H74.8c0-1.2-.9-2.3-2-2.3-1 0-1.8 1-1.8 2.3H10a7.5 7.5 0 0 1-7.6-7.5V54.7c2.4 0 4.3-2 4.3-4.7 0-2.6-2-4.7-4.3-4.7V32c0-4.1 3.4-7.5 7.5-7.5H71c0 1.3.9 2.4 1.9 2.4 1 0 1.9-1 1.9-2.4z"/> <path fill-opacity=".2" d="M66.3 66.6c1 0 1 1.7 0 1.8H54.2c-1 0-1.1-1.7 0-1.8 4-.2 8-.2 12 0zm0-3.4c.9 0 1 1.7 0 1.8h-7.4c-.9-.1-1.2-1.7 0-1.8h7.4z"/> <path fill="currentColor" d="M92.4 75.6H91V24.4h1.4c4.2 0 7.5 3.4 7.5 7.5v13.4c-2.3 0-4.2 2.1-4.2 4.7s1.9 4.7 4.2 4.7v13.4c0 4.2-3.3 7.5-7.5 7.5zM43.7 44.8c5.3 0 9.7 4.3 9.7 9.6 0 5.4-9.7 15.1-9.7 15.1s-9.6-9.7-9.6-15c0-5.4 4.3-9.7 9.6-9.7zm1.5 4.5a4.7 4.7 0 1 1 0 9.5 4.7 4.7 0 0 1 0-9.5z"/> <path style="mix-blend-mode: hard-light;" d="M71.7 28.4h17.6c3.2 0 5.9 2.7 5.9 6v6.2H0v-6.3c0-3.2 2.6-5.9 5.9-5.9h60.8v.5a2.5 2.5 0 1 0 4.9-.5z"/> <path fill="#fff" fill-opacity=".3" d="M71.7 28.4h17.6c3.2 0 5.9 2.7 5.9 6v6.2H0v-6.3c0-3.2 2.6-5.9 5.9-5.9h60.8v.5a2.5 2.5 0 1 0 4.9-.5z"/> <path d="M70.5 75.7H9.9c-4 0-7.4-3.4-7.5-7.4V55.5c.1-1 .7-.9 1.4-1.2 3.3-1.5 3.5-7.5-.5-8.8 0 0-.8-.3-.9-1V31.8c0-3.9 3.5-7.4 7.5-7.4H70.7c1.2.4.5 1.2 1.1 1.8.8.8 2.3.2 2.3-1 0 0 .2-.8.9-.8h17.5c4 0 7.4 3.4 7.5 7.4v12.8c-.1 1-.7.9-1.3 1.1-3.5 1.5-3.8 7.7.4 9 0 0 .8.2.9.9v12.8c0 3.9-3.5 7.4-7.5 7.4H75c-1.5-.1-.6-1.5-1.7-2-.8-.4-1.8.3-1.9 1.2 0 0 0 .7-.9.8zM72 28.1c-1-.2-1.9-.9-2.2-2-20 0-40-.3-60 0-1 0-1.4.1-2 .4-2.1.8-3.6 3-3.6 5.3v12.1l.3.1c4.6 2.2 4.9 10-.2 12.1 0 4.3-.3 8.2 0 12.6a5.9 5.9 0 0 0 5.6 5.2h59.9c.1-.5.2-.5.3-.7l.7-.8c1.5-1.2 4.2-.5 4.9 1.5 5.8 0 11.5.4 17.3 0a5.9 5.9 0 0 0 5.2-5.7v-12l-.3-.2c-4.7-2-5-10 .2-12.1 0-4.3.3-8.2 0-12.6a5.9 5.9 0 0 0-5.6-5.2H75.8l-.1.2a3 3 0 0 1-1.9 1.7v.6a1 1 0 1 1-1.8 0v-.5zm1.8 41.5v.1a1 1 0 1 1-1.8 0v-.9a1 1 0 1 1 1.8 0v.8zm-39.8-3c1 .1 1 1.6 0 1.8-7.7.4-15.4 0-23.1 0-1 0-1.3-1.7-.1-1.8 7.7-.4 15.5-.4 23.2 0zm12.5-23.8c7 .1 12.5 7.9 6.5 16.8-2 2.8-4.2 5.4-6.5 7.8 0 0-13-10.7-8.8-19.2 1.7-3.3 5-5.4 8.8-5.4zm27.3 22.3a1 1 0 1 1-1.8 0v-.8-.1a1 1 0 1 1 1.8 0v.9zM19 63c.9.1 1 1.8 0 1.9h-8.2c-.9-.1-1-1.8 0-1.8H19zm27.3-18.5c-5.6.1-10.2 6-5.4 13.3 2 3 5.5 7 5.5 7 4.6-5 9.7-11.2 6.8-16.3a8 8 0 0 0-7-4zm27.5 16a1 1 0 1 1-1.8 0v-.9-.1a1 1 0 1 1 1.8 0v1zm13.5-.9c.5 0 .5.9 0 1H77c-.5-.1-.5-.9 0-1h10.4zm0-2c.5 0 .5.8 0 .8-3.5.2-7 .2-10.4 0-.5 0-.5-.8 0-.9h10.4zm-61.8-4.3l.2 1.2c0 .4 0 .7-.2 1a2 2 0 0 1-.8 1 2.4 2.4 0 0 1-2.8 0c-.4-.2-.7-.6-.8-1l-.2-1h1.3v.6a1 1 0 0 0 1.1.8 1 1 0 0 0 1-.7l.1-.8-.1-1a1 1 0 0 0-1-.5c-.1 0-.3 0-.5.2h-.2l-.5-.7v-.1-.1l1.8-1.8h-2.7-.1v-1-.1h4.4a.1.1 0 0 1 .1 0v1.2L24 52.2c.7.1 1.2.5 1.5 1.2zM13.7 57h-1l-.1-.2v-6.1l-1.2.3h-.1V50 50l1.2-.6h1.3V57zm2.6-5.2H15v-.6c0-.4.1-.7.3-1l.9-.7a3 3 0 0 1 1.2-.2c.5 0 1 0 1.3.2l.8.8c.2.3.3.7.3 1 0 .6-.3 1.3-1 2.1l-1.7 2-.4.4H20V57h-4.7-.1V56v-.2l2-2.2.4-.6c.7-.7 1-1.3 1-1.7a1 1 0 0 0-.3-.8l-.8-.2c-.3 0-.6 0-.8.2a1 1 0 0 0-.3.8v.3l-.1.1zM73.8 56a1 1 0 1 1-1.8 0V55a1 1 0 1 1 1.8 0v.9zm13.5-.5c.5 0 .5.9 0 1H77c-.5-.1-.5-.9 0-1h10.4zm0-2c.5 0 .5.8 0 .8-3.5.2-7 .2-10.4 0-.5 0-.5-.8 0-.9h10.4zm-13.5-2.1a1 1 0 1 1-1.8 0v-.8-.1a1 1 0 1 1 1.8 0v.9zm13.5 0c.5 0 .5.8 0 .8-3.5.2-7 .2-10.4 0-.5 0-.5-.8 0-.9h10.4zm0-2.2c.5.1.5.9 0 1H77c-.5-.1-.5-.9 0-1h10.4zm0-2c.5 0 .5.8 0 .8-3.5.2-7 .2-10.4 0-.5 0-.5-.8 0-.9h10.4zm-13.5-.4v.1a1 1 0 1 1-1.8 0V46a1 1 0 1 1 1.8 0v.8zM87.3 45c.5.1.5.9 0 1H77c-.5-.1-.5-.9 0-1h10.4zm0-2c.5 0 .5.8 0 .8-3.5.2-7 .2-10.4 0-.5 0-.5-.8 0-.9h10.4zm-13.5-.7a1 1 0 1 1-1.8 0v-.8-.1a1 1 0 1 1 1.8 0v.9zm13.5-1.5c.5.1.5.9 0 1H77c-.5-.1-.5-.9 0-1h10.4zm-13.5-3a1 1 0 1 1-1.8 0v-.9-.1a1 1 0 1 1 1.8.1v.8zM27 34.4c1 .1 1 1.7 0 1.8-5.3.3-10.7 0-16.1 0-1 0-1.2-1.6-.1-1.8 5.4-.2 10.8-.2 16.2 0zm46.8-1.3a1 1 0 1 1-1.8 0v-.9a1 1 0 1 1 1.8 0v.9zm-54.7-2.5c1 .1 1.1 1.7 0 1.8h-8.3c-.9 0-1-1.7 0-1.8h8.3z"/> </symbol> <symbol id="shades-combined"> <use x="15" y="-10" style="transform: rotate(15deg)" xlink:href="#shades-single"/> <use y="15" xlink:href="#shades-single"/> </symbol> </symbol><symbol viewBox="0 0 100 100" id="three-colors"><title>Paris</title>  <path fill="currentColor" d="M57.5 567a71 71 0 0 1 122.3-71.6 52.4 52.4 0 0 1 72.2 16.4h15.3a45.5 45.5 0 0 1 48.6 0h390.8a49 49 0 0 1 32.8 0h19a50.8 50.8 0 0 1 74-14 68.6 68.6 0 0 1 129.8 14h4.2c3 66.5-8.3 133.7-34.2 195.1a459.7 459.7 0 0 1-264.7 250.8 463.1 463.1 0 0 1-313.2-.5 460 460 0 0 1-240-203 450.3 450.3 0 0 1-57-187.2z" transform="matrix(.10003 0 0 .10003 -1.1 .5)"/> <path style="mix-blend-mode:darken" d="M57.5 567a71 71 0 0 1 122.3-71.6 52.4 52.4 0 0 1 72.2 16.4h15.3a45.5 45.5 0 0 1 48.6 0h390.8a49 49 0 0 1 32.8 0h19a50.8 50.8 0 0 1 74-14 68.6 68.6 0 0 1 129.8 14h4.2c3 66.5-8.3 133.7-34.2 195.1a459.7 459.7 0 0 1-264.7 250.8 463.1 463.1 0 0 1-313.2-.5 460 460 0 0 1-240-203 450.3 450.3 0 0 1-57-187.2z" transform="matrix(.10003 0 0 .10003 -1.1 .5)"/> <path fill="currentColor" d="M498.9 990h4.5H497.5h1.4zm7.5 0h1.5-1.6zm2.6 0l.4-.1h-.4-.6.6zm-14.4-.1h.9-1.1.2zm16 0h-.1.2zm1.5 0zm-19.2 0h.4-.4zm-1.4-.1h.4-.4zm23.5 0h.2-.2zm-26 0h-.2l-1.5-.1h3.2-1.5zm27.5 0h-.1.3-.2zm1.4 0h-.1l.3-.1h-.2zm1.3-.1H519.4h-.2-.6.6zm-33.5 0h.2-.2zm35.2-.1h-.2.5-.3zm-36.8 0h.4-.4zm38.2 0h-.3.5-.2zm-40-.1h1-1zm41.5 0zm-42.5 0h.4-.4zm44 0l1.5-.2h-.3l-1.1.1h-.2.2zm-45.3-.1h.3-.3zm-4.6-.3h.4l1 .1h1.1-2.5zm52.7.2h-.1.2zm1.5-.1h-.2.5-.3zm1.5-.1h-.3.4-.1zm-58.5-.1H474.4l.5.1-2.3-.1zm60 0h-.1.1zm1.5 0l1.4-.2h-.2l-1.2.1h-.1l-1.4.1h1.5zm-62.6-.1l-1.7-.1h1.7zm65.4-.2h-.1.1zm-68.8 0h.3-.3zm70.2 0h-.1l.4-.1h-.3zm-71.6-.2h.4-.4zm73 0h-.2.4-.1zm-74.5 0h.5-.5zm-2.7-.3h.3l1 .1h.5l1 .1-2.8-.2zm78.7.2zm1.5-.1h.1l.6-.1h-.7zm1.4-.2h.1zm1.5-.1zm-85.7 0h-.5.5zm87.1-.1h-.1.4-.3zm-89.9-.2h.7l.6.1h-1l-.3-.1h-.6.6zm91.4 0h-.3.5-.2zm1.5-.1zm-94.8-.1h.4-.4zm96.2 0h.1-.1zm-100-.4h.5l.5.1h.5l.6.1h.6-1.7l-.5-.1h-.4l-.1-.1h-.7.7zm102.9 0h-.2l-1.2.2h-.1.1l1.2-.2h.4-.2zm-105.6-.3h.4l.7.1h-.8l-.3-.1h-.4l-.5-.1h-.5 1.4zm-3.2-.4h.7l.7.2h-.4l-.3-.1h-.2l-.5-.1h-.4.4zm116-.1h.1zM442 986h.4l1.1.1-1.2-.1h-.3zm121 0l-.2.1h.4-.2zm1.4-.1h.2-.2zm-123.9-.1h.5-.5zm-.9-.2l.7.1-1-.1h-.1.4zm126.3 0l-.2.1h.3-.1zm1.4-.1h-.1.3-.2zm-129 0h.3l-.7-.1h-.1.4zm130.5-.2zm-136-.6h.4l.9.1.5.1.8.1h.4l1 .2h-.4l-.6-.1h-.3l-.4-.1h-.5l-.3-.1h-.2l-.4-.1h-.4l-.2-.1h-.3l-.5-.1h-.4 1zm137.4.4zm1.5-.2h-.2.3-.1zm1.4-.2h.2-.2zm1.4-.3h-.1.2zm-146.2-.5l.6.1.7.2h.5l.9.2-.5-.1h-.4l-.3-.1h-.2l-.5-.1h-.2l-.2-.1H428l-.3-.1h-.1.6zm147.7.3h-.2.4-.2zm2.9-.5l-1.5.3 1.4-.3zm1.4-.2h-.2.3-.1zm-156.4-.3l1.2.2h-.4l-.8-.2h-.2l-.4-.1.6.1zm157.8 0h.2-.2zm1.5-.2h-.2.2zm-162-.3l.5.1.9.2h-.3l-.4-.1h-.2l-.1-.1h-.4l-.3-.1h-.4.7zm163.4 0h-.1.3-.2zm1.4-.2zm-166.5 0l-.3-.1h-.2.5zm168-.3zm1.4-.2h-.2.3zm1.4-.3h.2-.2zm1.5-.3h-.2.2zm1.4-.3h-.1.3-.2zm1.4-.2zm1.5-.3h-.2.4-.2zm1.4-.3h-.3.4-.1zm1.4-.3zm1.4-.3h-.1.4-.3zm1.5-.3h-.3.4-.1zm-319.4-45.8l1 .5h.1l.8.5-.9-.5-.8-.4-.2-.1-1.1-.7 1.1.7zm-2.3-1.3l1 .6-.3-.2-.7-.4zm-1-.5l1 .5-.2-.1-.7-.4-.1-.1h-.1.2zm-1-.7l.2.1-1.3-.7 1 .6zm-3.7-2h.2l.3.2.7.4.2.1 1 .6-2.4-1.4zm-.7-.4h.3-.3zm-1-.7l1 .7-.6-.4-.4-.3zm-1.2-.6l1 .6-1.2-.8.2.2zm-.9-.6h-.1l-.2-.2.3.2zm-1-.6h-.1.2zm-2.6-1.6l.3.2.6.4.2.1-1.1-.7zm-1.7-1h.1l.6.5.4.2-1-.7zm-1.6-1l.3.2.6.4-.9-.6zm-2-1.1l.4.2.6.3.4.2-1.3-.7zm-.9-.7l1 .7-.6-.4-.4-.3zm-1-.6l1 .6-.4-.2-.6-.4zm-.4-.2l.4.2-.3-.2zm-1-.6l.5.2-.2-.1-.2-.1zm-2.2-1.5l.2.1.6.4.6.4.3.2-1.7-1.1zm-1-.6l.4.2-.3-.1v-.1zm-1.1-.8l.7.5h-.1l-.4-.3-.2-.1-.4-.3-.3-.2.7.4zm-1.8-1l-.3-.3.3.2zm-2.2-1.6l.4.3.5.4.4.2-1.3-.9zm-1-.6l.5.3-.4-.3zm-1.3-.9l.4.3-.3-.2v-.1zm-.9-.6l.4.3-.2-.2-.2-.1zm-1-.7l.5.3h-.1l-.3-.3zm-.4-.3l-.9-.6.3.2.6.4zm-7-4.8l.8.5.8.6.8.5.8.6.8.6.8.5.8.6-.4-.3-.4-.3-.5-.3-.3-.2-.2-.2-.5-.3-.4-.3-.3-.2-.1-.1h-.1l-.4-.3-.4-.3-.5-.4-.3-.2-.2-.1-.4-.3-.2-.1-.3-.3-.5-.3.8.6zm-2.1-1.6l.8.6-.2-.1-.5-.4h-.1l-.4-.3-.4-.4.8.6zm-2.8-2l.6.4.4.4.5.3-1.8-1.3.3.2zm-1.2-.8l.5.3-.4-.3zm-.4-.4l-.3-.2-.6-.4.4.3.5.3zm-1.4-1l.5.4-.2-.1-.7-.6.4.3zm-2.2-1.6l.5.4-.4-.3v-.1zm-.9-.7l.5.4-.2-.2-.3-.2zm-1-.7l.6.4-.1-.1-.4-.3zm-.3-.3l.3.2-1.1-.8.8.6zm-1.7-1.3l.5.3-.4-.2-.5-.4.4.3zm-1-.7l.5.3-.2-.1-.3-.2zm-1-1h-.2l-.2-.2h-.1l-.2-.2-.2-.1-.2-.2-.2-.1-.2-.2-.5-.4.5.4.2.2.4.3.4.3.4.3.7.5-.5-.4-.2-.1zm-5.9-4.5l.5.4.4.3.6.5.3.2.1.1.7.6.4.3.5.4-3.5-2.8zm-.4-.3l.4.3-.6-.5-.3-.2.5.4zm-.9-.7h.2l-1-.7.8.7zm-2.6-2.2l.5.5.4.3.6.4-1.5-1.2zm-1-.7l.6.4-.5-.4zm-2.6-2.3l1.2 1-.5-.4-.4-.3-.3-.2v-.1l-.2-.1-.4-.4-.6-.5 1.2 1zm-2.3-1.9l.8.7-.7-.6zm-.8-.7l.5.4-.4-.3-.1-.1zm-1-.8l.6.5-.2-.2-.3-.3zm-2.3-2l.2.1.3.3.4.4.4.3-.1-.1-.2-.2-.3-.2-.2-.2-.2-.1-.1-.2-.2-.1-.5-.5.5.5zm-2.7-2.4l.4.4.3.2.4.4.2.1.5.5-.5-.5h-.1l-.2-.3-.3-.2-.2-.1-.1-.1-.3-.3-.1-.1-.1-.1-.6-.5.7.6zm-1-1l-.3-.2-.3-.2.5.5zm-1.5-1.2l.6.5-.2-.1-.4-.4zm-2-1.8l.6.5-.4-.3-.1-.2zm-3.6-3.3l.5.5.3.2.8.8.3.2.6.6.3.3.5.4-3.3-3zm-2-1.8l.8.7.3.3.6.5.1.1-1.7-1.6zm-.1-.2l-.6-.6h-.1l.7.6zm-1.6-1.4l.6.5-.3-.3-.3-.2zm-.3-.3l-.2-.2-.3-.4.5.6zm-1.6-1.6l.8.8-1-1 .2.2zm-.8-.8l.6.6-.5-.5h-.1zm-2-1.9l.2.2.6.6.3.3.6.5-1.7-1.6zm-2-1.9l.3.2.2.2.5.5.3.3-.3-.3-.2-.2-.3-.3h-.1l-.1-.2h-.1l-.1-.2-.5-.5.5.5zm-2.3-2.4l.7.8.2.2.7.6-1.6-1.6zm-1-1l.1.2.9.8-.3-.2-.6-.6v-.1l-.3-.2-.5-.5v-.1l.7.8zm-2.5-2.5l.7.7.1.1.7.8-1.5-1.6zm-.9-.8l.6.5-.3-.3-.3-.2zm-.8-1l.6.6-.2-.1-.4-.4zm-1-.9l1 1-.3-.3-.6-.7h-.1zm-.8-.9l.6.7-.5-.6-.1-.1-.1-.1v.1zm442.6-1.1l44.6 1-2.5-35.9-10.4-13.8-11 9.6-13.5-10.6-10.4 19.6 3.2 30zm-443.4.3l.5.5-.3-.3-.2-.2zm-.9-1l.6.7-.2-.2-.4-.4zm-2-2h.1l.8 1v-.2l-.7-.6v-.2h-.1l-.1-.1-.6-.6-.2-.3.8 1zm-1.4-1.6l.6.6-.2-.1-.4-.5zm-1.8-2l.1.2.5.5.3.3-.2-.2-.3-.3-.3-.3-.1-.2-.2-.2-.5-.6.7.8zm-1.7-1.8l.7.8-.1-.2-.6-.6zm-2.3-2.6l.2.3 1 1.1-.5-.6-.3-.3-.2-.2-.1-.2-.1-.1h-.1l-.2-.3-.1-.2.4.5zm-2.5-2.8l.3.4.4.4-.3-.3v-.1l-.2-.2-.2-.2-.1-.1-.3-.3-.5-.6.9 1zm-2.6-3l.5.7.2.2.8.8-1.5-1.7zm-.8-.9l.5.6-.2-.3-.3-.3zm-.8-1l.6.7-.2-.1-.4-.6zm-1.1-1.2l.1.1.8 1-.7-1h-.1l-.1-.1-.6-.7-.2-.2.8.9zm-1.3-1.6l.5.6-.2-.3-.3-.3zm-1-1l.7.7v-.1l-.6-.7zm-.7-1l.7.8-.8-.9zm-.8-1l.5.7-.3-.4-.2-.2zm-.7-.9l.5.7-.2-.3-.4-.5v.1zm-1.8-2.1l.2.3.4.5.3.3v-.1l-.2-.1v-.1l-.2-.3-.3-.2v-.2l-.2-.1-.1-.2-.5-.6.6.8zm-2.4-3l.4.5.2.3.4.5.2.2.4.6v-.2l-.4-.4-.1-.1v-.1h-.1l-.2-.3-.2-.2v-.2l-.2-.1-.3-.4-.2-.2-.5-.7.6.7zm-1.5-1.8l.8 1-.2-.3-.4-.6h-.1v-.1l-.2-.2-.5-.7.6.9zm-1.5-2l.7.9-.7-.9-.2-.2-.5-.7.7.9zm-1.4-1.8l.5.6-.3-.3-.2-.3zm-1-1.4l.7 1-.6-.7v-.1l-.1-.1-.6-.8-.2-.2.8 1zm-1.5-1.8l.7.8-.5-.7-.2-.1v-.2l-.6-.6.6.8zm-.8-1l-.6-1 .6 1zm-1.3-2l.6 1-.5-.8-.1-.1zm-.7-.9l.4.7-.2-.4-.2-.3zm-1.6-2.1l.7 1 .1.2.5.6-1.3-1.8zm-.7-1l.5.8-.4-.6-.1-.1zm-.7-.9l.5.7-.3-.4-.2-.3zm-.7-1l.5.7-.1-.2-.4-.5zm-1-1.3l.1.1.7 1-.6-1h-.1v-.1h-.1l-.5-.8-.1-.1.6.9zm-1.2-1.7l.5.6-.2-.3-.3-.3zm-1.6-2.4v.2l.7 1h.1l.6.9-1.4-2zm-1.2-1.7l.2.4.9 1.2-.5-.7-.2-.3-.2-.2-.1-.2-.1-.2-.3-.3v-.1l.3.4zm-1.6-2.3l.6 1-.6-1-.2-.2-.4-.7.6.9zm-2.2-3.3l.3.5.3.4.3.4.5.8-.5-.7-.2-.3-.1-.2-.2-.2-.1-.2-.2-.3-.1-.2zm-1.3-2l.5 1-.4-.7-.1-.2-.1-.1-.5-.8.6.9zm-1.4-2l.7 1-.8-1.2.1.2zm-.7-1l.6.8-.5-.7v-.1l-.2-.2-.4-.7.5.8zm-2-3.1l.6 1h.1l.6.9-1.3-2zm-.6-1l.5.7-.3-.5-.2-.2zm-.6-1l.4.7-.2-.3-.2-.4zm-2-3.3v.1l.6 1 1.3 2-.1-.1-.6-1-.6-.8v-.1l-.2-.4-.4-.6-.2-.4-.5-.7.6 1zm-3.3-5.3l.2.3.5 1 .3.3.5 1 .2.2.8 1.2-.6-1-.1-.1-.1-.2-.2-.2-.2-.4-.2-.3-.1-.2-.1-.2-.2-.2v-.1l-.2-.3-.3-.5-.1-.2v-.1l-.2-.2-.6-1 .7 1.2zm-.9-1.4l-.3-.6-.1-.2.4.8zm-1.8-3.2l.2.3.3.6.2.3.5.9-.4-.7v-.2l-.2-.1v-.2l-.3-.3-.1-.3-.2-.2v-.1zm-1.1-1.9l.4.7-.3-.5-.1-.2zm-.6-1l.4.7-.2-.3-.2-.4zm-2.3-4.2l.2.4.5.9.2.4.6 1.2-.6-1.2-.2-.3v-.1l-.3-.4-.2-.5-.2-.2v-.2zm-2.1-3.7l.6 1v.2l.7 1.2-1.3-2.4zm-1.5-2.7l.6 1v.2l.7 1.2-1.3-2.4zm-1.6-3l.7 1.3-.5-1-.1-.2v-.1h-.1l-.6-1.3.6 1.3zm-1.3-2.5l.6 1-.4-.6-.2-.4zm-1.4-2.7l.5 1-.3-.6-.2-.4zm-1.3-2.7l.4.8-.2-.5-.2-.3zm-1.4-2.7l.4.7-.2-.4-.2-.3zm-1.7-3.6v.1l.7 1.3-.3-.5-.3-.7v-.1l-.1-.1-.3-.7-.3-.6.6 1.3zm-.9-1.8l.2.4v-.2l-.2-.2zM168.4 224a461.8 461.8 0 0 1 198.7-122.7V63.1c0-4.2 3.4-7.5 7.6-7.5h2.8c0-11.5 6.2-20.8 14-20.8 7.6 0 13.9 9.3 13.9 20.8h2.8c4.1 0 7.5 3.3 7.5 7.5v26.3c28.3-5.4 57.4-8.2 87.3-8.2a461.1 461.1 0 0 1 287 99.6 41 41 0 0 0-28.2 27.3 31.7 31.7 0 0 0-56.5 25.5 31.8 31.8 0 0 0-38 31 31.8 31.8 0 0 0 31.7 31.8h195a451.7 451.7 0 0 1 63.7 167.8l5.4 18.5V513c0 1.2 0 2.5.2 3.8h-.3L963 586l-7-.5v1.5-1.5l-24-1.6 1.2-103.6a68.9 68.9 0 0 0-11.9-8.8v113.7l-32 1.8 1.4-124.8h-4c-28 0-52 16.6-62.7 40.6a50.6 50.6 0 0 0-74 14h-19a49 49 0 0 0-32.9 0h-25.6v68.4l-32 1.8.8-70.2h-14v68.4l-32 1.8.8-70.2H458.4l1 2.9-1-3h-136l-.9 3 1-3H307a45.5 45.5 0 0 0-48.5 0h-15.3a52.6 52.6 0 0 0-72.2-16.2 71 71 0 0 0-127.4.6v.5l-.1.8v.2l-.1 1V502l.1-.5v-.4a451 451 0 0 1 47-167v.3h158.5c.1 0 7.1-1 10.5-2.1 7.9-2.9 21.6-16 21.6-30a32 32 0 0 0-36.9-31.7 32.2 32.2 0 0 0-31.5-37.7 32 32 0 0 0-23.2 9.9 32.2 32.2 0 0 0-21.2-18.8zM42.7 515.5v.3-.3zm0-1.2v.4-.4zm.2-1v.4-.5zm0-1.1v.4-.4zm0-1.1v.4-.4zm.1-1v-.3.2zm.1-1.6v.5-.5zm.1-1.1v.5-.5zm0-1v.5-.6zm.2-1.2v.6V505.2zM91 333.4l-.3.7.1-.4.2-.3zm.5-1l-.4.7.2-.3.2-.4zm.5-1l-.4.8.2-.3.2-.4zm.5-.9l-.4.7.2-.3.2-.4zm.4-1l-.3.8.1-.3.2-.4zm.5-.9l-.3.7.1-.3.2-.4zm.5-1l-.3.8.1-.3.2-.4zm.5-.8l-.3.7.1-.4.2-.3zm.5-1l-.4.7.2-.3.2-.4zm.5-1l-.4.8.2-.3.2-.4zm.5-.9l-.4.7.2-.3.2-.4zm.5-.9l-.4.7.2-.3.2-.4zm.5-1l-.4.8.2-.3.2-.4zm.5-.9l-.3.7.1-.3.2-.4zm.5-.9l-.3.7.1-.3.2-.4zm.6-1l-.4.8.1-.3.3-.4zm.5-.8l-.4.7.1-.3.3-.4zm.5-1l-.4.7.2-.3.2-.4zm.5-.9l-.4.7.2-.3.2-.4zm.5-1l-.4.8.2-.3.2-.4zm.5-.8l-.4.7.2-.3.2-.4zm.6-1l-.4.7.1-.3.3-.4zm.5-.9l-.4.7.2-.3.2-.4zm.5-.9l-.4.7.2-.3.2-.4zm.6-1l-.5.8.2-.3.3-.4zm.5-.8l-.4.7.1-.3.3-.4zm.5-1l-.4.7.2-.2.2-.4zm.6-.9l-.5.7.2-.2.3-.5zm.5-.9l-.4.7.1-.3.3-.4zm.5-.9l-.4.7.2-.3.2-.4zm.6-.9l-.4.7.1-.3.3-.4zm.5-.9l-.4.7.2-.3.2-.4zm.6-1l-.5.8.2-.3.3-.4zm.5-.8l-.4.7.2-.3.2-.4zm.6-1l-.5.8.2-.3.3-.4zm.5-.8l-.4.7.2-.3.2-.4zm.6-1l-.5.8.2-.3.3-.4zm.5-.8l-.4.7.2-.3.2-.4zm.6-1l-.4.8.1-.3.3-.4zm.5-.8l-.4.7.2-.3.2-.4zm.6-1l-.4.8.1-.3.3-.4zm.6-.8l-.5.7.2-.3.3-.4zm.5-.9l-.4.7.2-.3.2-.4zm.6-.9l-.4.7.1-.3.3-.4zm.6-.9l-.5.7.2-.3.3-.4zm.6-.9l-.5.7.2-.2.3-.5zm.5-.9l-.4.7.2-.2.2-.5zm.6-.8l-.4.6.1-.2.3-.4zm.6-1l-.5.8.2-.3.3-.4zm.6-.8l-.5.7.2-.3.3-.4zm.6-.9l-.5.7.2-.3.3-.4zm.5-.9l-.4.7.1-.2.3-.5zm.6-.8l-.4.6.1-.2.3-.4zm.6-1l-.4.8.1-.3.3-.4zm.6-.8l-.5.7.2-.3.3-.4zm.6-.9l-.5.7.2-.2.3-.5zm.6-.9l-.5.7.2-.2.3-.5zm.6-.8l-.5.7.2-.3.3-.4zm.6-.9l-.5.7.2-.3.3-.4zm.6-.9l-.5.7.2-.2.3-.5zm.6-.8l-.5.6.2-.2.3-.4zm.6-.9l-.5.7.2-.3.3-.4zm.6-.9l-.5.7.2-.2.3-.5zm.6-.8l-.5.6.2-.2.3-.4zm.6-.9l-.5.7.2-.2.3-.5zm.6-.8l-.4.6.1-.2.3-.4zm.7-1l-.5.8.1-.3.4-.4zm.6-.8l-.5.7.1-.2.4-.5zm.6-.8l-.5.7.2-.3.3-.4zm.6-.9l-.5.7.2-.2.3-.5zm.6-.8l-.5.6.2-.2.3-.4zm.7-.9l-.5.7.1-.2.4-.5zm.6-.8l-.5.6.1-.2.4-.4zm.6-.9l-.5.7.2-.2.3-.5zm.6-.8l-.5.6.2-.2.3-.4zm.7-.9l-.5.7.1-.2.4-.5zm.6-.8l-.5.7.2-.3.3-.4zm.6-.9l-.5.7.2-.2.3-.5zm.7-.8l-.5.7.1-.2.4-.5zm.6-.8l-.5.6.2-.2.3-.4zm.7-.9l-.6.7.2-.2.4-.5zm.6-.8l-.5.7.1-.3.4-.4zm.7-.9l-.6.7.2-.2.4-.5zm.6-.8l-.5.7.1-.2.4-.5zm.7-.8l-.6.7.2-.3.4-.4zm.6-.9l-.5.7.1-.2.4-.5zm.7-.8l-.6.7.2-.2.4-.5zm.6-.8l-.5.7.1-.2.4-.5zm.7-.8l-.6.6.2-.2.4-.4zm.6-.9l-.5.7.1-.2.4-.5zm.7-.8l-.6.7.2-.2.4-.5zm.7-.8l-.6.7.2-.2.4-.5zm.6-.8l-.5.7.1-.2.4-.5zm.7-.8l-.6.6.2-.2.4-.4zm.7-.9l-.6.7.2-.2.4-.5zm.6-.8l-.5.7.1-.2.4-.5zm.7-.8l-.6.7.2-.2.4-.5zm.7-.8l-.6.7.2-.2.4-.5zm.6-.8l-.5.7.1-.2.4-.5zm.7-.8l-.5.7.1-.2.4-.5zm.7-.8l-.6.6.2-.1.4-.5zm.7-.8l-.6.6.2-.1.4-.5zm.7-.9l-.6.7.1-.2.5-.5zm.7-.8l-.6.7.1-.2.5-.5zm.6-.8l-.5.7.1-.2.4-.5zm.7-.8l-.6.7.2-.2.4-.5zm.7-.8l-.6.7.2-.2.4-.5zm.7-.8l-.6.7.2-.1.4-.6zm.7-.8l-.6.7.2-.1.4-.6zm.7-.7l-.6.6.2-.1.4-.5zm.7-.8l-.6.7.2-.2.4-.5zm.7-.8l-.6.7.1-.2.5-.5zm.7-.8l-.6.7.1-.2.5-.5zm.7-.8l-.6.7.1-.2.5-.5zm.7-.8l-.6.7.2-.2.4-.5zm.7-.8l-.6.7.2-.2.4-.5zm.7-.8l-.6.7.2-.1.4-.6zm.8-.8l-.7.8.2-.2.5-.6zm.7-.7l-.7.7.2-.2.5-.5zm.7-.8l-.7.7.2-.2.5-.5zm.7-.8l-.7.7.2-.1.5-.6zm.7-.8l-.6.8.1-.2.5-.6zm.7-.7l-.6.7.1-.2.5-.5zm.8-.8l-.7.7.1-.2.6-.5zm.7-.8l-.7.7.2-.1.5-.6zm.7-.8l-.7.8.2-.2.5-.6zm.7-.7l-.6.7.1-.2.5-.5zm.8-.8l-.7.7.1-.1.6-.6zM555.9 987h1.1l.3-.1h-.8l-.6.1h-.2.2zm4-.4h.3-.9l-.5.1H558.5h.3l1-.1z" transform="matrix(.1 0 0 .1 -.2 0)"/> <path d="M575.4 980.3a467 467 0 0 1-149-3.4v-3h9V970A77 77 0 0 0 293 929.4 460.2 460.2 0 0 1 99.3 725.3h9.2v-20.2h147l7.8-14.1 22.6-51h-.2l13.9-38.2h-1v-38.3h13.2l18.5-48.8 7-23.1c-14.8-6.8-33.3-10.8-53.4-10.7a129 129 0 0 0-54 11.5 52.4 52.4 0 0 0-50.1 3 71.4 71.4 0 0 0-28.7-30h194.4l-7.4 24 7.8-25.3h-.2v-17l-4.1-12.3h8.7l10-41.9 8-41.8 6.2-48.1 5.1-51.8 2.2-50.5v-93.4c-3.4-.7-6-3.8-6-7.4V58.1c0-4.2 3.4-7.6 7.6-7.6h2.8c0-11.4 6.2-20.7 14-20.7 7.6 0 13.9 9.3 13.9 20.7h2.8c4.1 0 7.5 3.4 7.5 7.6v41.8c0 3.9-3 7-6.6 7.5v93.3l2.4 50.5 4.3 51.8h-.2l5.8 48 8.6 44.8 9.3 39h10l-4 12.3v17h-1.5l15.5 50.6 18.6 48.8h14.5v38.3h-2.3l13.9 38.2h-.2l22.5 51L543 705h24V601.6H559V582h7.7v-89.4a128.1 128.1 0 0 0-55.5-11.7c-18.9.1-36.3 3.8-50.6 9.9l-7.9-25.5h114V407h-7.7v-19.5h15.6v-16.9H587v-20.2h-5l17.2-24.8 17.3 24.8h-5v20.2h102v16.9H728v19.5h-7v58.4h139.8V407H853v-19.5h15.6v-16.9h68.3c7.2 18.5 13 37.4 17.6 56.6L942 442l-1.5 136.8 24 1.7a444.7 444.7 0 0 1-32.2 126.4 455.8 455.8 0 0 1-130.8 174.2H721v53.2a445.7 445.7 0 0 1-109 39.5h-.3l-1 .3h-.2l-.6.1-.5.2.5-.2h.5-.3l-.7.2h-.3l-.7.2h-.5.5l.5-.1h-.4l-.6.2h-.2l-.8.2h-.5.5l.5-.1h-.5l-.4.2h-.2l-1 .2h-.4.5l.6-.1-.7.1h-.3l-1.2.3h-.3l-1.2.3h-.2l-1.4.3h-.2l-.2.1h-.4l-.5.2h-.4l-1 .3h.2l-1.3.2-1.3.2-1.4.3-13.2 2.1h-.1l-1.2.2h-.2l-1.1.2h-.3l-1 .2h-.3l-1.2.2h-.1l-.5.1h-.2.7zm-8.6 1.1h.2-.2zm1.6-.2l-.4.1h.6-.2zm1.6-.2l-.4.1h.5zm1.7-.2h-.3H572h-.3zm1.6-.2h-.1.6-.5zm3.6-.5h-.4l-.3.1h.7zm1.4-.2h.2-.4l-.4.1h.5zm1.3-.2h.4-.8.4zm1.3-.2h.7-.8.1zm2-.3l-.6.1h.8-.2zm1.6-.2l-.7.1.8-.1h-.1zm1.6-.3l-1 .2 1-.2 1-.1-1 .1zm1.6-.2h-.2l1-.2-.8.2zm1.6-.3h-.2l.8-.1-.6.1zm1.6-.3h-.3.9-.6zm1.6-.3l-.4.1.9-.1h-.5zm1.6-.2l.4-.1h-.4l-.5.2.5-.1zm1.4-.3h.5-1 .4zm1.3-.2l.7-.2h-.2l-.8.2h.3zm3.3-.7l-.7.2.4-.1h.3zm2-.4l.9-.1-1 .2h-.1H602.2zm1.6-.3l.7-.1-.8.1-.3.1h.4zm8.1-1.7l-1.1.3 1.1-.3zm11.7-131.4l44.5 1-2.5-35.9-10.4-13.8-11 9.6-13.5-10.5-10.4 19.5 3.3 30zM487.9 705l-5.3-14.1c-7-10.6-38.6-50.8-82.8-50.8-44 0-75.8 31.6-84 50.6v.2l-5.4 14.1H488zm349.8-1.5V638c0-10.9-7.1-19.7-15.8-19.7-8.8 0-15.8 8.8-15.8 19.7 0-10.9-7.1-19.7-15.8-19.7-8.8 0-15.9 8.8-15.9 19.7 0-10.9-7-19.7-15.8-19.7-8.7 0-15.8 8.8-15.8 19.7v65.7h94.9zm76-275.4l-14.4 17L898 582l31.9-1.9v-135l-16.2-17zm-248.8 0l-14.3 17L649 582l32-1.9v-135l-16.2-17zm-45.3 0l-14.2 17-1.5 136.8 31.9-1.9v-135l-16.2-17zM721 582h139.8V466.4a69 69 0 0 0-28.2 31.4 50.5 50.5 0 0 0-41.4-9.2 142.9 142.9 0 0 0-70.2-5.6v99zm-343.5-70.2l-.5 2.9-9.5 48.8h63.5l-9.5-48.8-.5-3h-43.5zm35.9-47.7H385l-4 25.2 3.8-24h28.6l3.8 24-4-25.2zm-331.8 1.2a71.5 71.5 0 0 0-23 20.8c.7-7 1.5-13.9 2.6-20.8h20.4zM399 393l-5.8 42h12.1l-6.3-42z" transform="matrix(.10003 0 0 .10003 -1.1 .5)"/> <path fill="black" fill-opacity=".3" d="M566.8 981.4h.8-.8zm2.5-.3l1.3-.1-1.3.1-1.4.2 1.4-.2zm2.4-.3l-.7.1 1-.1h-.3zm1.2-.1h-.5 1-.5zm1.2-.2h-.3 1-.7zm1.2-.2h-.2 1.2-1zm3.7-.5l-1 .2 1.2-.2h-.2zm1.2-.2l-.7.1 1-.1h-.3zm1.2-.1h-.5l1-.1h-.5zm1.2-.2h-.3l1-.1h-.7zm2.4-.4l1.4-.2-1.4.2-1.4.2 1.4-.2zm2.4-.4l-.9.2 1.2-.2h-.3zm1.3-.2l-.7.1 1-.2-.3.1zm1.2-.2h-.5l1-.1-.5.1zm1.2-.2h-.3l1.1-.1-.8.1zm3.8-.7l-2.8.5 1.4-.2 1.4-.3zm1-.2l-.8.2 1.1-.2h-.3zm1.2-.2l-.6.1 1-.2-.4.1zm1.2-.2h-.4l1-.1h-.6zm1.2-.2h-.3l1.3-.2-1 .2zm3.8-.8l-2.7.5 1.4-.2 1.3-.3zm1-.2l-.7.2 1-.3-.3.1zm1.2-.2h-.5l1-.1h-.5zm1.2-.3h-.4l1.1-.1-.7.1zm5-1zm4.7-623.6h-5v20.2h32.1v434.3l.3.6v38h-.3v122.2c-10.4 3.1-21 5.9-31.7 8.2h-4.2V843h14.6v-37.5c0-.2 1.2-2 2.8-4.3l8-21h-25.4v-36.3h9v-18.5h-9v-20.2h-40.8V601.6h-7.7V582h7.7V407h-7.7v-19.6h15.6v-16.9H587v-20.2h-5l17.2-24.8 17.3 24.8zm-258 354.8V893a77 77 0 0 0-65.4 36.4A460.2 460.2 0 0 1 99.3 725.3h9.2v-20.2h147l7.8-14.1 22.6-51h-.2l13.9-38.2h-1v-38.3h13.2l18.5-48.8 15.6-50.6h-.2v-17l-4.1-12.3h8.7l10-41.9 8-41.8 6.2-48.1 5.1-51.8 2.2-50.5v-93.4c-3.4-.7-6-3.8-6-7.4V58.1c0-4.2 3.4-7.6 7.6-7.6h2.8c0-11.4 6.2-20.7 14-20.7v371.3l-1.3-8.2-5.8 42h7V464h-15l-8.2 50.6-9.5 48.8H400v76.7h-.3c-44 0-75.8 31.6-84 50.6v.2l-5.4 14.1h48zm307.1 138.3h-21.7v-38c0-.4 8-12.3 10.9-12.3 2.9 0 10.8 11.8 10.8 12.3v38zm123.3-129.8a59.3 59.3 0 1 1 0 118.7 59.3 59.3 0 0 1 0-118.7zm146-13l-2.5 6.3a448.8 448.8 0 0 1-71.6 116V585a68.6 68.6 0 0 1 0-118.6v-59.6h-8v-19.4H870v-16.9H935v330.2zm-146 46.4a26 26 0 1 1 0 51.9 26 26 0 0 1 0-52zM58.4 486a71 71 0 0 1 58.4-29.8v142h-.5A71 71 0 0 1 57.5 567a452 452 0 0 1 1-81zm197.2 36.3a45.7 45.7 0 0 1 36.3-17.5v91.5h-.3c-18 0-33.6-10.4-41.1-25.5a54.2 54.2 0 0 0 5.1-48.5zm-77.9-25.5a52.4 52.4 0 0 1 30.3-9.3v105.2h-.3c-16.4 0-31-7.5-40.7-19.2a68.3 68.3 0 0 0 10.7-76.7zM802 582H776a50.8 50.8 0 0 1 25.8-94.5V582zm162.5 0h-20.7V445.7c0-.4 6.7-10.6 11.6-15.2a456.7 456.7 0 0 1 9 151.5zm-283.5 0H650V445.7c0-.6 11.3-17.5 15.4-17.5s15.4 16.7 15.4 17.5V582z" transform="matrix(.10003 0 0 .10003 -1.1 .5)"/> <path fill="black" fill-opacity=".3" d="M246 711.7l8.6-15.6 22.6-50.9h-.2l13.9-38.3h-1v-38.2H303l18.4-49 15.7-50.5h-.2v-17l-4.2-12.3h8.8l10-41.9 8-41.8 6.2-48.2 5.1-51.7 2.2-50.5v-93.5c-3.4-.7-6-3.7-6-7.3V63c0-4 3.4-7.4 7.6-7.4h2.8c0-11.5 6.2-20.8 14-20.8 7.6 0 13.9 9.3 13.9 20.8h2.8c4.1 0 7.5 3.3 7.5 7.5V105c0 3.8-2.9 7-6.6 7.4v93.4l2.4 50.5 4.3 51.7h-.2l5.8 48.2 8.6 44.7 9.4 39h9.9l-4 12.3v17h-1.5l15.5 50.6 18.6 48.9h14.5v38.2h-2.3l14 38.3h-.3l22.6 51 8.6 15.5h-55.2l-6-15.6c-7-10.6-38.5-50.7-82.7-50.7-44 0-75.8 31.5-84 50.6v.1l-6 15.6h-55zm158.6-242.5h-28.2l-8.2 50.6-9.5 48.9h63.5l-9.5-49-8.1-50.5zM390.2 398l-5.8 42h12.2l-6.4-42z" transform="matrix(.1 0 0 .1 -.2 0)"/> <path fill="black" d="M370.8 92.8V57.9a13 13 0 0 1 10.6-12.2 55.8 55.8 0 0 1 2.4-8.3c2.1-5 6.1-9.8 11.3-11.7V0c0-.9.1-1.2.3-1.7.7-1.9 2.2-3.2 4.6-3.3h.2c1 0 1.2.1 1.7.3 1.9.7 3.2 2.3 3.2 4.7v25.8c7.4 3 12.5 12.2 13.6 19.6v.3A13 13 0 0 1 429.4 58v20.6a473.1 473.1 0 0 1 83-7.3 471.2 471.2 0 0 1 287.8 99.5c9.2-2 19-1.4 27.8 2.5 0 0 19.3-21.3 44.4-21.1 33.7.6 61.7 36.7 51.3 70.6 0 0 10 1.5 16.5 5.4 26 15.9 20 67.6-18.8 68.3h-10a455.4 455.4 0 0 1 32.3 64 462.8 462.8 0 0 1-2.2 350.4 468.5 468.5 0 0 1-201.8 225 473 473 0 0 1-305.4 52.7 470.7 470.7 0 0 1-275.6-154.3 462.2 462.2 0 0 1-112.1-277c-3.7-16.2.3-53.8 1-62.3a458.4 458.4 0 0 1 47.6-168.5c1.3-3.2 4-7.8 6.2-12a462.7 462.7 0 0 1 70.7-97.3c1.4-1.5 2-2.5 3.2-2.9A468.2 468.2 0 0 1 370.8 92.8zM269.3 847.9v67.5c-3.4-2-6.7-4.2-10-6.4v-31.2h-41.8l-11.5-10h53.3v-19.9h-74a460 460 0 0 1-9.6-10h441.7V813H154.2l-7.8-10H619l6.8-18H133.5l-6.6-10h475.7v-26.2H111.3a431 431 0 0 1-5.3-10h505.6v-8.5h-510l-4.7-10h6.6v-15.2l.4-1.9c1.1-1.6 1.1-1.6 2.7-2.7l2-.4h5.4a5 5 0 0 1-2.6-3.4l-.1-.9V603a77.2 77.2 0 0 1-53-26.7c6 62.3 25 123.3 56 178a460 460 0 0 0 240 202.9c100.1 36.5 213.1 36.7 313.3.5A460.8 460.8 0 0 0 917 739.3l.2-.3v-.1l.1-.2.1-.1.1-.2v-.2h.1v-.1l.2-.2v-.2l.2-.2.7-1.5.2-.2v-.1l.1-.3.1-.1v-.2l.2-.1v-.2l.1-.2.1-.1.1-.2v-.1l.2-.3.6-1.1.1-.3-.1.3-.6 1v.1l-.1.3-.2.3v.1l-.2.3v.1l-.2.3-.2.3v.1l-.2.3-.7 1.5-.2.3-.2.4-.2.3-.1.4-.2.4-8.8 16c-3.8 3.5-7.5 7.1-10.9 11v7c-3.2 5-6.6 10-10 15v-23.9c0-.8.1-1 .3-1.5 1-3 3.8-5 6.2-7.5a165 165 0 0 1 26.7-23 436.6 436.6 0 0 0 11-23.8h-46.8V792c-3.2 4.5-6.5 9-10 13.5v-96.8h-9.4v108.7c-3.3 4-6.6 7.9-10 11.7V708.6H725.8v52.1c2.7-13 9.3-25.4 19-34.6a65.2 65.2 0 0 1 44.5-17.5 66 66 0 0 1 57 35.4c8.8 17.5 9 39.1.5 56.8a65.7 65.7 0 0 1-70.1 35.3 64 64 0 0 1-34.2-19 65 65 0 0 1-16.6-31.4v52.7h121c-3.1 3.4-6.3 6.7-9.6 10H819v17.7l-10 8.8v-26.5h-9v27.7h7.5l-12.1 10h-69.5v45.6l-10 5.2V886h-9.5v55.4l-10 4.6v-60h-83.8v83.3h3.9c1.6.3 3 1.2 3.7 2.5-12.7 3-25.5 5.5-38.3 7.5h-.6.6-122.1l-.3 2.4-9.4-1.2.1-1.2h-8.8c-6.6-1-13.2-2.2-19.8-3.5v-6.5H430.2a74.1 74.1 0 0 0-41.4-64.7 72.5 72.5 0 0 0-30.6-6.7h-6.4a72.4 72.4 0 0 0-54.4 33.7l-8.6-4.6a83.8 83.8 0 0 1 69.9-39.1 83.7 83.7 0 0 1 81.7 81.4h7.2V947a93.3 93.3 0 0 0-26.1-44.3 93.4 93.4 0 0 0-63.4-25c-23 .2-45.9 9.2-62.7 25a88.5 88.5 0 0 0-15.5 19.2l-8.7-5.2c18-29.2 51.2-48.5 86.2-49h1.4c35.9.2 70.8 20.4 88.8 52.2v-72H269.3zm302.5 133l-10 1.1 10-1.2zm30.8-103.1h-145v67.8c1.8 7.8 2.7 15.8 2.7 23.8h142.3v-91.6zM585 956.5H474.8a5.2 5.2 0 0 1-5-5v-57.1a5.2 5.2 0 0 1 5-5H585.4c2.5.3 4.5 2.5 4.6 5v57a5.2 5.2 0 0 1-5 5zm-5-57.1H479.8v47H580v-47zm-348-10h10.2c2.5.3 4.4 2.4 4.5 5v6c-5-3.6-10-7.3-14.8-11zm539-41h-9v27.7h9v-27.7zm-74.6 0h-10.3v27.7h10.3v-27.7zm-77.2 0h-6.6v27.7h6.6v-27.7zm19 0h-9v27.7h9v-27.7zm94.9 0h-7.2v27.7h7.2v-27.7zm-17.2 0h-9.5v27.7h9.5v-27.7zm74 0H781v27.7h9v-27.7zm-132.7 0h-9v27.7h9v-27.7zm94.8 0h-9v27.7h9v-27.7zm-75.9 0h-9v27.7h9v-27.7zm-73.5-.5h-145v19.9h145v-19.9zm32.5-59.5c3.7 1.2 6.5 4.3 8.8 7.6 2-2.4 4.2-4.7 6.2-6.2 1.4-1 2.3-1.8 4.8-1.7l1.1.1c6.8 1.5 10.9 9.3 13.7 14.3.6 1.2.8 2.4.8 2.4v33.5H684v-72.3a128.4 128.4 0 0 0-31.2-26.7c-2.8-1.7-5.6-3.7-8.7-3.9h-.2c-4.4.1-8.8 3.8-13.3 7-6.3 4.5-12.3 9.5-18 14.8V775h17a17.9 17.9 0 0 1-2-18.6c3-6 9.3-10 16.1-10.1h.5a19 19 0 0 1 17.8 20.8 18.9 18.9 0 0 1-18 15.7 16 16 0 0 1-6.2-1.2v.1l-2.6 6.6zm61.3-79.8h-83.8v2.7c4.1 2.3 7.2 6.5 8 11.2l.6.9.4 1.9v11.2c3.7-2.8 7.5-5.3 11.4-7.5 3.3-1.8 6.8-3.4 10.6-3.5h.5c9.7.3 18.1 7.8 26.2 14.3 8 6.4 16 12.9 22 20.8.8 1.1 1.4 1.8 1.6 3.9v74h2.5V728c-.2 1-.5 1.8-1 2.7-4 8.3-16.5 10.9-23.4 4.3-5.6-5.3-6-15.2-.5-21 2.8-2.9 6.4-4.5 10.8-4.5 6.7.1 12.6 5.6 14.1 12.1v-13zm19.5 0h-9.5v129.8h9.5V708.6zm-88.5 129.8h11.4v-31.7a52.2 52.2 0 0 0-5.7-7.6h-.1a47.5 47.5 0 0 0-3.6 4.4l-2 5.4v29.5zm27.2-39.2a57 57 0 0 0-5.7 7.5v31.7h11.6v-31.7a52.2 52.2 0 0 0-5.8-7.6zm152-1.4a30 30 0 0 1-12.8 5.6V827a52.3 52.3 0 0 0 29.6-12.3l-16.7-16.8zm-35.6 0l-16.8 16.9c8.3 6.8 18.8 11 29.6 12v-23.3c-4.6-.8-9-2.8-12.8-5.6zM758.3 778H735c1 10.8 5.3 21.3 12.2 29.7l16.8-16.8a29.9 29.9 0 0 1-5.6-12.9zm84.6 0h-23.7c-1 4.6-2.8 9-5.6 12.7l16.9 16.9a54.5 54.5 0 0 0 12.4-29.6zm-54.2-26c-9.4.2-18.3 7.2-20.3 16.5-2 9.5 3.4 20 12.3 23.8 11.5 4.9 26.8-3 28.8-16a21.5 21.5 0 0 0-20.8-24.2zm-145 4.5c-6.3 0-10.8 9.1-5.6 14.2 4.2 4.1 13 1.8 14-4.8a8.5 8.5 0 0 0-8.4-9.4zm103.6-18a52.7 52.7 0 0 0-12.5 29.5h23.7c.8-4.5 2.8-8.9 5.5-12.7l-16.7-16.7zm83.3-.1L813.8 755c2.7 3.7 4.7 7.9 5.5 12.5v.4h23.5a55.7 55.7 0 0 0-12.2-29.6zm-46.8-19.4a55.5 55.5 0 0 0-29.3 12.6L771 748c3.8-2.7 8.1-4.7 12.8-5.6V719zm10 0v23.5c4.7.9 9 2.8 13 5.6l16.7-16.8a55.2 55.2 0 0 0-29.7-12.3zm106.2-9.3c9.7.2 17.7 11.7 13 21.2-4 8.3-16.5 10.9-23.4 4.3-8.1-7.8-3.8-25.2 10-25.5h.4zm-.3 10c-4.1 0-6.7 7-1.8 9.2 3.2 1.3 7.4-1.9 6.5-5.6a4.8 4.8 0 0 0-4.7-3.6zm-217.6 0c-4.1 0-6.8 7-1.8 9.2 3.5 1.5 8.3-2.8 6-6.8a4.8 4.8 0 0 0-4.2-2.4zm-79.5-9.5h-489v10.2h489v-10.2zm329.8-3.6v.1zm.2-.3v.1zm0-.3v.1zm.2-.3v.1zm.2-.4v.1zm.1-.3v.2-.2zm.1-.3v.2-.1zm.2-.3l-.1.2v-.1zm3-334.8h.1l2.3 6h-65.5v6.9h68l3.4 10h-87v9.5h90l3 10h-65.9V577h8.6V445.5l.1-.8c.5-1.9 7.2-13.2 14.5-19 1.8-1.5 3-2.6 6-2.5l1.3.1c6.7 1.5 11 9 15.3 15.1 1.4 2 3 4 3.5 6.3l.1.8V577h4.5V445.4v-.7c.6-1.9 7.3-13.2 14.6-19l.7-.7c1 3.7 1.8 7.5 2.6 11.2a77 77 0 0 0-7.8 10.6V577h16c-.2 3.3-.6 6.7-1 10h-79v9.6h77.8l-1.6 10h-76.2v13.7a23.7 23.7 0 0 1 14.4-4.8c7.5 0 14.5 4 19 9.8a24.3 24.3 0 0 1 19.4-9.8c7.4 0 14.5 4 19 9.8l1.3-1.6c-1.8 9.1-4 18.1-6.4 27l.1-11.1v-.2a14.5 14.5 0 0 0-14.3-13.9c-7.3 0-14 6.4-14 14.1v59h12.4l-1.9 4.6-.1.3v.1l-.2.3-.1.4.1-.4.1-.2v-.1l.2-.2v-.2c21-51.1 32-106.2 33.1-161.4a462.8 462.8 0 0 0-.3-28.7v.2-.7V511.8v.2-.2l-.1-.6v-1.4.6l-.1-1v-1V508l-.1-1.3c-2.7-47-12.6-93.5-29.8-137.2v-.1l-.2-.4.2.4zM480.8 700l-2.4-6.3a130.1 130.1 0 0 0-30-31.2 82.3 82.3 0 0 0-59-17c-26.4 3.3-51.9 19-65.6 41.1-1.2 2-2.4 4-3.3 6.1l-2.7 7.3h163zm-187.1-99a48.5 48.5 0 0 1-43.8-22 60.1 60.1 0 0 1-37.1 18.3V665c0 1.2-.2 1.5-.5 2.1-1.4 3-6 3.8-8.2 1.3-.9-1-1.3-2.2-1.3-3.4v-67.5a54 54 0 0 1-34.2-15.5 75.5 75.5 0 0 1-47.2 21v92.8c-.1 2.8-1.2 3.7-2.4 4.3h134.3l5.1-8.9c0-.7 0-1.5.5-2.4l22-49.4c0-.4 0-.7.2-1l12.8-35.4-.2-1.2v-.7zm-28.9 99h1.2l-.7-.7-.5.7zm31-4.1h-20l3.7 4.1h8.4l7.9-4.1zm227 0h-20l7.8 4.1h8.4l3.8-4.1zm9.8 4.1h1.1l-.4-.7-.7.7zm29.3-183.3h-87.6l15.9 41.7h11.6c1.8.4 2 .7 2.7 1.3 1 1 1.6 2.3 1.7 3.7v38.3c0 1-.4 2-1 2.8l12.3 33.7.3 1.1 22 49.5c.4 1.2.4 1.6.3 2.3l5.2 9h16.6v-93.6h-2.7l-1.9-.4c-1.6-1-1.6-1-2.7-2.7l-.4-2V582l.4-2c1.1-1.5 1.1-1.5 2.7-2.6l2-.4h2.6v-60.2zm176 89.8h-12v92h12v-92zm117.6 0h-12.7v92h12.7v-92zm-274.1 0h-9.5v92h9.5c0-19.7-.2-39.3 0-59v-33zm134.6 0h-9.5v92h9.5v-92zm159 0h-9.5v92h9.4v-92zm-216.9 33v-.2c-.1-7.4-6.8-14-14.3-13.9-7.3 0-14 6.4-14 14.1v59H658c0-19.7-.2-39.3 0-59zm-38.4 0v-.2c-.1-7.4-6.8-14-14.2-13.9-7.4 0-14 6.4-14.1 14.1v59h28.3v-59zm76.8 0v-.2c-.2-7.4-6.9-14-14.3-13.9-7.3 0-14 6.4-14 14.1v59h28.3v-59zm216.8 0v-.2a14.5 14.5 0 0 0-14.3-13.9c-7.3 0-14 6.4-14 14.1v59h28.3c0-19.7-.2-39.3 0-59zm-80.5-1.7v-.2c-.1-6.9-4-14.4-10.6-14.5a7 7 0 0 0-1.8.1l-.8.2c-6 2-8.4 9-8.4 14.4v60.7h21.6V638zm-31.6 0v-.2c-.1-6.9-4.1-14.4-10.7-14.5a7 7 0 0 0-1.7.1l-.9.2c-5.8 2-8.3 9-8.4 14.4v60.7h21.7V638zm-31.7 0v-.2c0-6.9-3.9-14.6-10.8-14.5a8 8 0 0 0-2.4.3c-5.9 2-8.4 9-8.4 14.4v60.7h21.6V638zm-278.1 48h27.6l-19.7-13.5-8 13.6zm-211.9 0h27.7l-8-13.5-19.7 13.6zm28-19.1l7.7 13 11-26-18.7 13zm164.9-12.9l11 25.9 7.7-13-18.7-12.9zm32 9.9l19 13-11.5-25.8-7.5 12.8zm-229.3 13l19-13-7.5-12.8-11.5 25.8zM457.6 645H439l1 .5c9.3 5 17.9 11.3 25.6 18.5l-8-19zm-100.7 0h-16.1l-6.2 14.5c6.9-5.7 14.3-10.6 22.3-14.5zm146.8 0H477l19 13.1 7.7-13zm-182.3 0h-26.8l7.7 13.1 19-13zm151.5-10h21.3l-13.5-7.9-7.8 8zM304 635h21.4l-7.8-7.9-13.6 8zm139.6-28.2h-89L344.6 635h109.2l-10.1-28.2zm-117.1 15.1l8.8 9 6.4-17.9-15.2 9zm136.3 9l8.9-9-15.3-8.9L463 631zm-167.8-2.2l15.3-8.9-8.8-8.9-6.5 17.8zm192.9-8.9l15.2 9-6.4-17.9-8.8 8.9zm208.4-13.2H591.3v13.7a23.7 23.7 0 0 1 14.3-4.8c7.5 0 14.5 4 19 9.8a24.3 24.3 0 0 1 19.4-9.8c7.5 0 14.5 4 19 9.8a24.4 24.4 0 0 1 19.4-9.8c5 0 10 1.9 14 4.9v-13.8zm136.3 0h-84.9v10a18.8 18.8 0 0 1 11-3.4 19.5 19.5 0 0 1 15.6 8.5 19.4 19.4 0 0 1 16-8.5 19.5 19.5 0 0 1 15.6 8.5 19.4 19.4 0 0 1 16-8.5c3.8 0 7.5 1.3 10.7 3.6v-10.2zm-346 .2h-21l13.3 7.8 7.8-7.8zm-154 0h-21.1l7.7 7.8 13.4-7.8zm34.3-38.3h-63.4v28.3H496v-28.3H367zM874.8 587h-9.4v9.6h9.4V587zm-159 0h-9.4v9.6h9.5V587zm-19.4 0H591.3v9.6h105.1V587zm159 0H725.9v9.6h129.5V587zm-274.1 0h-9.5v9.6h9.5V587zM56.7 555.8a67.5 67.5 0 0 0 71.7 36.4 67.2 67.2 0 0 0 47.6-36.7 66.9 66.9 0 0 0-1-58.6 67.5 67.5 0 0 0-59.1-35.7 67.6 67.6 0 0 0-58.5 36.1 452 452 0 0 0-.7 58.5zm250-43c-4.9-2-10.1-3-15.4-3-10.8.1-21.3 5-28.8 12.6a58.6 58.6 0 0 1-3 42.7c-.8 1.9-3.2 5.8-3.2 5.8a39.8 39.8 0 0 0 37.3 20.3v-27.7a5.3 5.3 0 0 1 5-5h9.7l13.3-35.2a40.9 40.9 0 0 0-7.3-6.5h-2.7l-2-.4c-.5-.4-1.1-.6-1.6-1.1-1-1-1-1.6-1.3-2.6zm-131.6 62a48.6 48.6 0 0 0 51 9.2 48.5 48.5 0 0 0 28.8-37.8 49 49 0 0 0-28.2-49.8 46.5 46.5 0 0 0-40.5 1.5 76.7 76.7 0 0 1 5.4 40 75.5 75.5 0 0 1-16.5 37zm667.5 2.2l-.4-.4-.5.4h.9zM581.3 412h-9.5v165h9.5V412zm244.9 165c3.5-2.2 6.7-5 9.5-8-2.6-3.6-5-7.4-6.9-11.4a76 76 0 0 1-2.5-58.2s-4-2.2-6.1-3.1a46.3 46.3 0 0 0-18.6-3.8 47 47 0 0 0-44.6 36.8 46.7 46.7 0 0 0 20.6 47.7h48.6zm48.6-165h-9.4v165h9.4V412zm-159 0h-9.4v165h9.5V412zm10 165h36.4a56 56 0 0 1-15.6-31c-1-7.9-.2-16.3 2.1-24 0 0-4.5-2.8-7-4-5-2.3-10.4-3.6-15.8-4v63zm-29.4-165H591.3v165h8.6V445.4v-.7c.5-1.9 7.3-13.2 14.6-19 1.7-1.5 3-2.6 6-2.5l1.2.1c6.8 1.5 11 9 15.3 15.1 1.6 2.3 3.5 4.9 3.6 7.1V577h4.5V445.4l.1-.7c.5-1.8 7-13 14.5-19 1.8-1.5 3-2.6 6-2.5l1.3.1c6.7 1.5 11 9 15.3 15.1 1.5 2.3 3.5 4.9 3.6 7.1V577h10.5V412zm-76.2 21.8c-4 3.7-7.2 8.3-10.2 13l-.1.2v130h20.7V446.9c-2.9-4.8-6.3-9.5-10.3-13 0 0 0-.2-.1 0zm293.6 0c-4 3.7-7.2 8.3-10.2 13l-.2.2v130h20.8V446.9c-3-4.8-6.3-9.5-10.3-13 0 0 0-.2-.1 0zm-248.3 0c-4 3.7-7.2 8.3-10.3 13V577h20.7V446.9c-3-4.8-6.3-9.5-10.3-13 0 0 0-.2-.1 0zm189.9 42.6a62.8 62.8 0 0 0 0 98.5v-98.5zm-438.7 40.4h-35l-8.2 41.7h51.3l-8-41.7zm-90 41.7h30.5l-11-14.5-19.5 14.5zm114.5 0h30.4L452.2 544l-11 14.5zm-87-20.5l10.4 13.8 5-25.4-15.4 11.6zm79.5 13.8l10.5-13.8-15.4-11.6 5 25.4zm-111.2-2.6l17.6-13.2-8.4-11.1-9.2 24.3zM458.2 536l17.6 13.2-9.2-24.3-8.4 11.1zM362 519.7h-21.6l7.8 10.3 13.8-10.3zm96.1 0h-21.6l13.8 10.3 7.8-10.3zm508.7-3zm0-1.3v.2-.2zm0-1.1v.2-.5h-.1v.3zm-191.3-25.1a140.8 140.8 0 0 0-49.5-2.2v17a55 55 0 0 1 26.4 8.8s6.5-10.6 11-15c3.7-3.4 7.7-6.3 12-8.6zm-447.8 17.6l3.8-12.5a120 120 0 0 0-25.7-6.8 130.5 130.5 0 0 0-65.1 5.6c7.2 5 13.4 11.6 17.6 19.4a48.2 48.2 0 0 1 33.7-12.7 51 51 0 0 1 25 7h10.7zm638.7.1v0zm0-.1zm-620 0h20L359 495l-12.7 11.8zm85.8 0h20L439.4 495l-7.3 11.8zm129.7 0v-11.2c-8.2-3.6-17.2-6-26.2-7.6-23-4-47.5-2.8-68.9 5.5l4.1 13.3h91zm-152.6-36.5h-20l-5.8 36.5H415l-5.7-36.5zm-42.7 17.8l7.7 12.6 3.7-23.2-11.4 10.6zm57.6 12.6l7.8-12.6-11.4-10.6 3.6 23.2zm20.6-14.4l13 12.1-6.8-22.3-6.2 10.2zm-104.1 12.1l13-12-6.2-10.3-6.8 22.3zm506.5-28H725.9v6.7c6-.7 12-1.1 18-1.2a138 138 0 0 1 47.8 7.5 55.8 55.8 0 0 1 10.5-1c10 .2 19.8 3.1 28.3 8.2a72.6 72.6 0 0 1 16.6-20.3zm-508.3 0H166.7a73.7 73.7 0 0 1 15 18.3 58.4 58.4 0 0 1 26.3-6.2 57 57 0 0 1 21.4 4.4c9.3-4.1 19.4-7 29.5-8.8 25.2-4.4 52-2.9 75.4 6.6l4.5-14.4zm223 0H459.6l4.2 13.7a139.4 139.4 0 0 1 98 .7v-14.5zM443.5 469h-17.4l11.1 10.3 6.3-10.3zm-71.2 0h-17.5l6.4 10.3 11.1-10.3zM102.6 334.4A442 442 0 0 0 59.5 477c2-2.4 4.2-4.6 6.6-6.7h-5.8l1.6-10H66V450h-2.4a431 431 0 0 1 2-10h.4v-2.1l1.5-6.7a5 5 0 0 1 3.7-1.3c1 0 1.2.1 1.7.3 1.8.8 3 2.3 3.1 4.6v5.2h45.1v-5.2c0-.9.1-1.1.3-1.6a4.8 4.8 0 0 1 5-3.3c.9 0 1.1.1 1.6.3 1.9.8 3 2.3 3.1 4.6v5.2h45.1v-5.2c0-.9.1-1.1.3-1.6.7-2 2.3-3.3 4.7-3.4h.3l1.4.3c2 .7 3.3 2.3 3.3 4.7v5.2h45.2v-5.2c0-.9 0-1.1.3-1.6.6-2 2.2-3.3 4.7-3.4h.2c1 .1 1.2.2 1.7.4 1.8.8 3 2.3 3 4.6v5.2h45.2v-5.2c0-.9 0-1.1.3-1.6a4.8 4.8 0 0 1 5-3.3c.7 0 1 0 1.4.2 2 .7 3.2 2.3 3.3 4.7v5.2H338l-1.2-3.6a5.2 5.2 0 0 1 4.8-6.6h4.8l9-37.8v-.4l8-41.2v-.2l6-47.2.1-1 5-51.2.2-.5 2-48.5v-50.2-41.2a13 13 0 0 1-5.3-7 450.2 450.2 0 0 0-185.2 113.9c5.4 2.9 10.2 7.4 13.6 12.5 0 0 2.8-1.8 5.2-3a37.5 37.5 0 0 1 31.1-.9 37.8 37.8 0 0 1 22.5 34s-.7.4.6.4c19.6.8 37 18.4 35.6 38.9a40 40 0 0 1-27 33.5c-3 .8-6.1 1.3-9.2 1.7h-156zm860.1 136v-.5.4zm-.2-1.3v-.4.4zm-.2-1.3v-.3.3zm-.7-5v.2-.2zm-.2-1.2v.2-.3zm-.2-1.3v.3-.3zM561.8 450H517v10.3h45V450zm-330.3 0h-45.2v10.3h45.2V450zm584.2 0h-44.9v10.3h44.9V450zm-54.9 0h-35v10.3h35V450zm94.6 0h-29.7v10.3h29.7V450zm-679 0h-45.2v2.8c7.3 1.5 14.4 4 21 7.5h24.1V450zm-55.2 0H76.1v10.3h4.2L85 458a76.7 76.7 0 0 1 36.2-6.5V450zm219.5 0h-44.1v10.3h44.1V450zm166.2 0h-48v10.3h48V450zm-220.3 0h-45.1v10.3h45V450zm162.3 2h-98.2v7H449v-7zm510.5-2v-.4.4zm-.2-1.3v.4-.7.3zm-.3-1.2l.1.3-.1-.6v.3zm-.2-1.3v.2-.5.3zm-.2-1.2v.1l-.1-.4v.3zm-.3-1.3v.1-.3.2zm-.2-1.2v-.2.2zm-607.7-2.7h-1.8l.8 2.3h101l.7-2.3H350.3zm607.4 1.4v-.1.1zM725.9 412V440h35v-5.2c0-.9 0-1.1.2-1.6.7-2 2.3-3.3 4.7-3.4h.3c.9.1 1.1.2 1.6.4 1.9.8 3 2.3 3.1 4.6v5.2h44.9v-5.2c0-.9 0-1.1.3-1.6.7-2 2.2-3.3 4.7-3.4h.2c1 .1 1.2.2 1.7.4 1.8.8 3 2.3 3 4.6v5.2h29.8v-28h-2.7a5.3 5.3 0 0 1-5-5v-19.6a5.3 5.3 0 0 1 5-5h10.6v-11.9a5.3 5.3 0 0 1 5-5h66.6l.3.7a446.3 446.3 0 0 0-35.4-69.7c-64.4.3-128.7.7-193 0-26.4-1-45.8-34.8-29.2-58.2a37.5 37.5 0 0 1 30.6-15.5c0-4 .2-4.3.5-6.3 3.8-25 37.7-40.9 60-22.6a45.7 45.7 0 0 1 20.2-19.3 460 460 0 0 0-359.5-85.8V100c-.1 4.5-2.8 8.6-6.6 10.8V201l2.4 49 .1 1 4.2 51.5v1.2l4.7 44.3.3.7c.4.6.5 1.2.6 1.9l7.7 40.7.2 1 9 37.4h6.4c3 .5 5.1 3.5 4.3 6.6l-1.2 3.6h45.4v-5.2c0-.9.1-1.1.3-1.6.7-2 2.3-3.3 4.7-3.4h.2l1.5.3c2 .7 3.2 2.3 3.3 4.7v5.2h45v-28H559a5.3 5.3 0 0 1-5-5v-19.6a5.3 5.3 0 0 1 5-5h10.6v-11.9a5.3 5.3 0 0 1 5-5h7.2v-10.2c-2.3 0-2.6-.6-3.3-1.2a5.2 5.2 0 0 1-.8-6.6l17.2-24.8c1-1.4 2.2-2.2 4.3-2.2h.2c1.5.2 2.9 1 3.8 2.2l17.2 24.8c2 3 .2 7.7-4 7.8v10.2H714c2.5.5 4.4 2.5 4.5 5v11.9h10c2.4.4 4.3 2.4 4.4 5v19.5a5.3 5.3 0 0 1-5 5h-2zm-327 18h.5l-.2-1.7-.3 1.6zm16.7 0h18.9l-11.4-9.7-7.5 9.6zm-51.7 0h18.9l-7.6-9.7-11.3 9.6zm44.6-7.2l7-9-9.7-8.3 2.7 17.3zm-25.6-9l7 9 2.6-17.3-9.6 8.3zm46.4-1.4l10.3 8.8-4-16.9-6.3 8zm-70.6 8.8l10.4-8.8-6.3-8.1-4 16.9zm69-23.2h-15.3l9.3 7.9 6-7.9zm-41.8 0h-15.3l6.1 7.9 9.2-7.9zm337-5.5H564.1v9.5H723v-9.5zm-351-4.5h17.6l-7.8-10.5-9.9 10.5zm37 0h17.6l-9.8-10.5-7.9 10.5zm177.8-12.4h-7v6.9h128.8v-6.9H586.7zm-198-5.5l5.2 7v-12.6l-5.3 5.6zm15.8 7l5.2-7-5.2-5.6V377zm-36 0l7.1-7.7-4.5-6.1-2.6 13.7zm54.2-7.7l7.2 7.6-2.6-13.7-4.6 6zm513.5-.4l.1.2v-.2zm0-.3v.2-.2zm-.2-.3v.1-.1zm-.1-.3v.1-.1zm-.1-.3v.1-.1zm-.1-.3v.1-.1zm-.2-.3v.1-.1zm0-.3zm-.2-.3zm-328.9-11.2H592v10.2h14.5v-10.2zm-218.4.8h-9.8l4.4 5.8 5.4-5.8zm32.1 0h-9.7l5.4 5.8 4.3-5.8zm-38.3-10H416l-17-14.9-17.3 14.9zm209.7-.8h15.3l-7.7-11-7.6 11zm-184.7-20.7L423 339l-2.7-26-13.6 11.7zm-31.9 14.2l16.6-14.2-13.3-11.6-3.3 25.8zm-196.1-114c-28 29.9-52 63.5-71 99.6h149.7c4.6-.6 9.1-1.2 13.1-4 9.3-6.4 16-17 13.8-28.2a27.8 27.8 0 0 0-30.6-21.6h-.3a9 9 0 0 1-1 .1c-6.2.4-12.4 2.8-16.3 7.9a13.9 13.9 0 0 0-3 8.5s-.7 4-3.6 4.8c-3.3 1-6.7-1.8-6.4-6.4.8-12.3 12.5-22.3 25.3-24.4a28.1 28.1 0 0 0-19.1-27 27.6 27.6 0 0 0-25.3 5.2c.4 1.8.5 3.8.7 5.5.4 6.2 1 12.7-1.1 18.3-1.3 3.3-6.7 4.2-8.9 1-1.8-2.7-.1-6.3 0-10.2.3-4.8.8-9.9-1-14.1l-.3-.6a27.6 27.6 0 0 0-14.7-14.3zm232 83.2h-23.1l11.4 10 11.7-10zm-25.2-10h27.9l-13.8-16-14.1 16zm20.7-23.5l12 13.7-2-24.9-10 11.2zM381 288.1l12-13.6-9.6-11L381 288zm530.7-62l1-2.9c10.4-25.7-9.2-59.2-38.7-61h-3c-14.6.4-28.5 8-36.5 20.3l-.2.4-.2.4c-3.5 7-6.3 14.7-6.7 22.4 0 2.4 0 3.3-.5 4.4-2 3.9-9.4 3.3-9.5-3.4a58.7 58.7 0 0 1 6.1-24.4 37.3 37.3 0 0 0-48.2 22.3l-.1.2c-1.6 6.2-3.1 12.4-3.5 18.7 0 0-1.4 4.8-5 4.7-3 0-5.1-2.9-4.9-6.3.4-5.9 1.7-11.7 3.2-17.5-15-16.2-48.2-3.7-46.5 20.1 4.5 1.7 8.7 5.4 12.6 8.8a46 46 0 0 1 12 14.5c1.7 3.6-1.6 8.6-6 7.1-2.5-.8-3.3-3.8-5-6.1a46.1 46.1 0 0 0-19.5-15.5l-1.6-.1c-16.6-1.9-32.6 14.1-29.6 31.1a27.4 27.4 0 0 0 25.6 22c71.6.9 143.3 1.3 215 0 21-1 34.9-32.4 15.5-47.7-5-4-13.6-5-18.2-5.2a52 52 0 0 1-12.5 14.7c-3.4 3-10 0-8.3-5a7.5 7.5 0 0 1 2.4-3c4.3-3.9 8.3-8.1 10.5-13.5l.3-.5zm-502.5 30.1h-18.8l9.3 10.7 9.5-10.7zm-19.5-10H410l-10.3-13.4-10.1 13.4zm16.4-21.7l8.4 11-1-20.7-7.4 9.7zm-20.8 11l8.2-11-7.3-9.6-.9 20.5zm22.4-29.8h-16l8.1 10.5 8-10.5zm-16-10h16.2l-8.1-11-8.2 11zm-5-10.3l6.9-9.2-6.8-9.3v18.5zm19.3-9.2l6.8 9.2V167l-6.8 9.3zm2-19.6h-16.4l8.2 11 8.1-11zm-15.7-10h15l-7.5-9.1-7.5 9zm14-17l6.5 8v-16l-6.6 8zm-19.5 8l6.5-8-6.5-8v16zm20.4-25h-14.9l7.5 9 7.4-9zm6.9-57h-30.7a2.6 2.6 0 0 0-2.6 2.4c-.2 14-.4 28 0 42 .1 1.3 1.2 2.4 2.5 2.4l14.4.2h12.6c2.2 0 4.4 0 6.7-.2 1.2 0 2.4-1.1 2.4-2.4 0-14 .4-28 0-42 0-1.3-1.2-2.4-2.5-2.5a1075.1 1075.1 0 0 0-2.8 0zm-5.5-10a22.6 22.6 0 0 0-2.1-5.8 15.3 15.3 0 0 0-1.9-2.6c-1.1-1.3-2.7-2.4-4.5-2.4-4.5 0-6.7 5-7.8 8.3l-.6 2.4h16.9z" transform="matrix(.10003 0 0 .10003 -1.1 .5)"/> </symbol><symbol viewBox="0 0 100 100" id="two-colors"><title>Tickets</title>  <path d="M78 31l2 1v7c0 1-1 2-2 1h-1c-6 0-11 5-10 11 0 5 5 9 10 9h1c1-1 2 0 2 1v7l-2 1H58V31h20zm-24 0h1v38H2l-2-1v-7c0-1 1-2 2-1h1c5 0 10-4 10-9A10 10 0 0 0 2 40c-1 1-2 0-2-1v-7l2-1h52zM41 46l-5 4v1l4 8-1 1s0 1 0 0l-7-5h-1l-5 4s-1 0 0 0v3h-1l-5-4v-1h4l3-6v-1l-6-5v-2h1l9 3 4-5c4-3 6-1 6-1s3 2 0 6z"/> <path fill="currentColor" d="M41 46l-5 4v1l4 8-1 1s0 1 0 0l-7-5h-1l-5 4s-1 0 0 0v3h-1l-5-4v-1h4l3-6v-1l-6-5v-2h1l9 3 4-5c4-3 6-1 6-1s3 2 0 6z"/> </symbol></svg>